<svg width="16" height="16" viewBox="0 0 16 16" fill="none" xmlns="http://www.w3.org/2000/svg">
<path d="M14.2919 7.77486L8.16523 13.9015C7.41467 14.6521 6.39669 15.0737 5.33523 15.0737C4.27378 15.0737 3.25579 14.6521 2.50523 13.9015C1.75467 13.151 1.33301 12.133 1.33301 11.0715C1.33301 10.0101 1.75467 8.99209 2.50523 8.24152L8.6319 2.11486C9.13227 1.61448 9.81093 1.33337 10.5186 1.33337C11.2262 1.33337 11.9049 1.61448 12.4052 2.11486C12.9056 2.61523 13.1867 3.29389 13.1867 4.00152C13.1867 4.70916 12.9056 5.38782 12.4052 5.88819L6.2719 12.0149C6.02171 12.265 5.68238 12.4056 5.32857 12.4056C4.97475 12.4056 4.63542 12.265 4.38523 12.0149C4.13504 11.7647 3.99449 11.4253 3.99449 11.0715C3.99449 10.7177 4.13504 10.3784 4.38523 10.1282L10.0452 4.47486" stroke="#ACB5BB" stroke-width="1.3" stroke-linecap="round" stroke-linejoin="round"/>
</svg>
