<svg width="40" height="40" viewBox="0 0 40 40" fill="none" xmlns="http://www.w3.org/2000/svg">
<path d="M12.6541 29.9372C14.0792 28.5196 14.0792 26.2211 12.6541 24.8035C11.2291 23.3858 8.9187 23.3858 7.49368 24.8035C6.06866 26.2211 6.06866 28.5196 7.49368 29.9372C8.9187 31.3549 11.2291 31.3549 12.6541 29.9372Z" fill="#2E2E2E"/>
<path d="M10.0734 29.7363C11.3871 29.7363 12.4522 28.6768 12.4522 27.3699C12.4522 26.0629 11.3871 25.0034 10.0734 25.0034C8.75965 25.0034 7.69464 26.0629 7.69464 27.3699C7.69464 28.6768 8.75965 29.7363 10.0734 29.7363Z" fill="#545454"/>
<path d="M11.4637 28.7531C12.2314 27.9894 12.2314 26.7513 11.4637 25.9876C10.6961 25.224 9.45155 25.224 8.68392 25.9876C7.91629 26.7513 7.91629 27.9894 8.68392 28.7531C9.45155 29.5167 10.6961 29.5167 11.4637 28.7531Z" fill="#C2C2C2"/>
<g opacity="0.2">
<path d="M10.4292 26.3491C10.4292 26.545 10.2704 26.703 10.0734 26.703C9.87637 26.703 9.71759 26.545 9.71759 26.3491C9.71759 26.1531 9.87637 25.9951 10.0734 25.9951C10.2704 25.9951 10.4292 26.1531 10.4292 26.3491Z" fill="#2E2E2E"/>
<path d="M10.4292 28.3996C10.4292 28.5956 10.2704 28.7535 10.0734 28.7535C9.87637 28.7535 9.71759 28.5956 9.71759 28.3996C9.71759 28.2036 9.87637 28.0457 10.0734 28.0457C10.2704 28.0457 10.4292 28.2036 10.4292 28.3996Z" fill="#2E2E2E"/>
<path d="M9.04273 27.0203C9.23974 27.0203 9.39852 27.1782 9.39852 27.3742C9.39852 27.5702 9.23974 27.7281 9.04273 27.7281C8.84573 27.7281 8.68695 27.5702 8.68695 27.3742C8.68695 27.1782 8.84573 27.0203 9.04273 27.0203Z" fill="#2E2E2E"/>
<path d="M11.104 27.0203C11.301 27.0203 11.4598 27.1782 11.4598 27.3742C11.4598 27.5702 11.301 27.7281 11.104 27.7281C10.907 27.7281 10.7482 27.5702 10.7482 27.3742C10.7482 27.1782 10.907 27.0203 11.104 27.0203Z" fill="#2E2E2E"/>
<path d="M9.597 26.3986C9.73667 26.5376 9.73667 26.7614 9.597 26.9003C9.45733 27.0392 9.23239 27.0392 9.09273 26.9003C8.95306 26.7614 8.95306 26.5376 9.09273 26.3986C9.23239 26.2597 9.45733 26.2597 9.597 26.3986Z" fill="#2E2E2E"/>
<path d="M10.8026 28.4537C10.9991 28.4537 11.1583 28.2953 11.1583 28.0998C11.1583 27.9043 10.9991 27.7458 10.8026 27.7458C10.6061 27.7458 10.4468 27.9043 10.4468 28.0998C10.4468 28.2953 10.6061 28.4537 10.8026 28.4537Z" fill="#2E2E2E"/>
<path d="M9.09273 27.8496C9.23239 27.7106 9.45733 27.7106 9.597 27.8496C9.73667 27.9885 9.73667 28.2123 9.597 28.3512C9.45733 28.4902 9.23239 28.4902 9.09273 28.3512C8.95306 28.2123 8.95306 27.9885 9.09273 27.8496Z" fill="#2E2E2E"/>
<path d="M10.5512 26.3986C10.6908 26.2597 10.9158 26.2597 11.0554 26.3986C11.1951 26.5376 11.1951 26.7614 11.0554 26.9003C10.9158 27.0392 10.6908 27.0392 10.5512 26.9003C10.4115 26.7614 10.4115 26.5376 10.5512 26.3986Z" fill="#2E2E2E"/>
</g>
<path d="M11.0364 27.3698C11.0364 27.8993 10.6057 28.3278 10.0734 28.3278C9.54124 28.3278 9.11047 27.8993 9.11047 27.3698C9.11047 26.8404 9.54124 26.4119 10.0734 26.4119C10.6057 26.4119 11.0364 26.8404 11.0364 27.3698Z" fill="#545454"/>
<path d="M10.2998 27.2163C10.2395 27.3377 10.1116 27.3991 10.0146 27.3509C9.91752 27.3041 9.88812 27.1666 9.94839 27.0437L10.8555 25.214C10.9158 25.0927 11.0437 25.0312 11.1407 25.0795C11.2377 25.1263 11.2671 25.2638 11.2069 25.3866L10.2998 27.2163Z" fill="#636363"/>
<path d="M11.3274 25.5695C11.2936 25.6368 11.1099 25.6134 10.9173 25.5183C10.7232 25.4232 10.5938 25.2916 10.6262 25.2258L11.4333 23.5336C11.4671 23.4663 11.6509 23.4897 11.8435 23.5848C12.0375 23.6798 12.1669 23.8115 12.1346 23.8773L11.3274 25.5695Z" fill="#737373"/>
<path d="M10.5792 27.3698C10.5792 27.6477 10.3528 27.8729 10.0734 27.8729C9.7941 27.8729 9.56769 27.6477 9.56769 27.3698C9.56769 27.0919 9.7941 26.8667 10.0734 26.8667C10.3528 26.8667 10.5792 27.0919 10.5792 27.3698Z" fill="#2E2E2E"/>
<path d="M18.3918 27.9068C18.3918 27.9068 15.7013 28.0735 14.5311 28.0574C13.0344 28.0384 11.4304 26.6811 12.6081 24.9319L16.0321 25.6646L18.3918 27.9068Z" fill="#3B3B3B"/>
<path d="M16.4305 26.1062C16.4305 26.2759 16.2923 26.4119 16.1232 26.4119H13.2122C13.0417 26.4119 12.905 26.2744 12.905 26.1062C12.905 25.9366 13.0432 25.8005 13.2122 25.8005H16.1232C16.2937 25.8005 16.4305 25.938 16.4305 26.1062Z" fill="#545454"/>
<path d="M17.0686 27.0584C17.0686 27.228 16.9304 27.364 16.7613 27.364H13.8504C13.6798 27.364 13.5431 27.2266 13.5431 27.0584C13.5431 26.8887 13.6813 26.7527 13.8504 26.7527H16.7613C16.9319 26.7527 17.0686 26.8902 17.0686 27.0584Z" fill="#545454"/>
<path d="M34.9304 29.937C36.3555 28.5193 36.3555 26.2209 34.9304 24.8032C33.5054 23.3856 31.195 23.3856 29.77 24.8032C28.345 26.2209 28.345 28.5193 29.77 29.937C31.195 31.3546 33.5054 31.3546 34.9304 29.937Z" fill="#2E2E2E"/>
<path d="M32.3496 29.7363C33.6633 29.7363 34.7283 28.6768 34.7283 27.3699C34.7283 26.0629 33.6633 25.0034 32.3496 25.0034C31.0358 25.0034 29.9708 26.0629 29.9708 27.3699C29.9708 28.6768 31.0358 29.7363 32.3496 29.7363Z" fill="#545454"/>
<path d="M33.7401 28.7528C34.5077 27.9892 34.5077 26.7511 33.7401 25.9874C32.9725 25.2237 31.7279 25.2237 30.9603 25.9874C30.1927 26.7511 30.1927 27.9892 30.9603 28.7528C31.7279 29.5165 32.9725 29.5165 33.7401 28.7528Z" fill="#C2C2C2"/>
<g opacity="0.2">
<path d="M32.7069 26.3491C32.7069 26.545 32.5481 26.703 32.3511 26.703C32.1541 26.703 31.9954 26.545 31.9954 26.3491C31.9954 26.1531 32.1541 25.9951 32.3511 25.9951C32.5481 25.9951 32.7069 26.1531 32.7069 26.3491Z" fill="#2E2E2E"/>
<path d="M32.7069 28.3996C32.7069 28.5956 32.5481 28.7535 32.3511 28.7535C32.1541 28.7535 31.9954 28.5956 31.9954 28.3996C31.9954 28.2036 32.1541 28.0457 32.3511 28.0457C32.5481 28.0457 32.7069 28.2036 32.7069 28.3996Z" fill="#2E2E2E"/>
<path d="M31.319 27.0203C31.516 27.0203 31.6748 27.1782 31.6748 27.3742C31.6748 27.5702 31.516 27.7281 31.319 27.7281C31.122 27.7281 30.9633 27.5702 30.9633 27.3742C30.9633 27.1782 31.122 27.0203 31.319 27.0203Z" fill="#2E2E2E"/>
<path d="M33.3817 27.0203C33.5787 27.0203 33.7375 27.1782 33.7375 27.3742C33.7375 27.5702 33.5787 27.7281 33.3817 27.7281C33.1847 27.7281 33.0259 27.5702 33.0259 27.3742C33.0259 27.1782 33.1847 27.0203 33.3817 27.0203Z" fill="#2E2E2E"/>
<path d="M31.8733 26.3986C32.013 26.5376 32.013 26.7614 31.8733 26.9003C31.7336 27.0392 31.5087 27.0392 31.369 26.9003C31.2294 26.7614 31.2294 26.5376 31.369 26.3986C31.5087 26.2597 31.7336 26.2597 31.8733 26.3986Z" fill="#2E2E2E"/>
<path d="M33.0789 28.4537C33.2754 28.4537 33.4347 28.2953 33.4347 28.0998C33.4347 27.9043 33.2754 27.7458 33.0789 27.7458C32.8824 27.7458 32.7231 27.9043 32.7231 28.0998C32.7231 28.2953 32.8824 28.4537 33.0789 28.4537Z" fill="#2E2E2E"/>
<path d="M31.622 28.4537C31.8185 28.4537 31.9777 28.2953 31.9777 28.0998C31.9777 27.9043 31.8185 27.7458 31.622 27.7458C31.4255 27.7458 31.2662 27.9043 31.2662 28.0998C31.2662 28.2953 31.4255 28.4537 31.622 28.4537Z" fill="#2E2E2E"/>
<path d="M32.8275 26.3986C32.9671 26.2597 33.1921 26.2597 33.3317 26.3986C33.4714 26.5376 33.4714 26.7614 33.3317 26.9003C33.1921 27.0392 32.9671 27.0392 32.8275 26.9003C32.6878 26.7614 32.6878 26.5376 32.8275 26.3986Z" fill="#2E2E2E"/>
</g>
<path d="M33.3126 27.3698C33.3126 27.8993 32.8818 28.3278 32.3496 28.3278C31.8174 28.3278 31.3867 27.8993 31.3867 27.3698C31.3867 26.8404 31.8174 26.4119 32.3496 26.4119C32.8818 26.4119 33.3126 26.8404 33.3126 27.3698Z" fill="#545454"/>
<path d="M32.5158 27.2413C32.5864 27.3569 32.5702 27.4973 32.4776 27.5529C32.385 27.6085 32.2527 27.5602 32.1821 27.4432L31.1162 25.7013C31.0457 25.5857 31.0618 25.4453 31.1545 25.3897C31.2471 25.3342 31.3794 25.3824 31.45 25.4994L32.5158 27.2413Z" fill="#636363"/>
<path d="M31.669 25.495C31.7072 25.5579 31.5896 25.7012 31.4058 25.8124C31.222 25.9235 31.0397 25.963 31.0015 25.9001L29.9974 24.3147C29.9592 24.2503 30.0768 24.1085 30.2605 23.9973C30.4443 23.8862 30.6266 23.8467 30.6648 23.9096L31.669 25.495Z" fill="#737373"/>
<path d="M32.8554 27.3698C32.8554 27.6477 32.629 27.8729 32.3497 27.8729C32.0703 27.8729 31.8439 27.6477 31.8439 27.3698C31.8439 27.0919 32.0703 26.8667 32.3497 26.8667C32.629 26.8667 32.8554 27.0919 32.8554 27.3698Z" fill="#2E2E2E"/>
<path d="M24.4665 10.7887C24.7121 11.3444 24.6812 11.8958 24.3989 12.0187C24.1166 12.1416 23.6888 11.7905 23.4433 11.2348C23.1978 10.679 23.2286 10.1276 23.5109 10.0047C23.7932 9.88188 24.221 10.2329 24.4665 10.7887Z" fill="#049AFC"/>
<path d="M26.172 13.5616C25.8073 12.6884 25.2031 11.2785 25.0752 11.0635C24.9429 11.0343 24.4151 11.024 23.9696 11.0313L23.9652 10.7798C25.1031 10.7608 25.1972 10.8324 25.2325 10.8588C25.2663 10.8836 25.3545 10.9509 26.4057 13.4651L26.172 13.5616Z" fill="#049AFC"/>
<path d="M28.286 14.0226C28.5329 14.0226 28.733 13.6847 28.733 13.2679C28.733 12.8511 28.5329 12.5132 28.286 12.5132C28.0392 12.5132 27.8391 12.8511 27.8391 13.2679C27.8391 13.6847 28.0392 14.0226 28.286 14.0226Z" fill="#E7D888"/>
<path d="M27.7377 12.4913L28.286 12.2061V14.3268L27.892 14.2566L27.7377 12.4913Z" fill="#04329C"/>
<path d="M27.2701 19.513L25.969 15.839L26.7614 15.6182L27.2701 16.0131L28.7006 19.279L27.2701 19.513Z" fill="#04329C"/>
<path d="M35.7825 23.6199C35.7825 23.6199 32.6099 22.9632 30.6604 24.7373C28.7109 26.5114 28.8241 27.2997 28.0773 27.4518C27.329 27.6054 26.8306 27.601 26.8306 27.601C26.8306 27.601 26.8144 23.9051 29.7989 22.3284C33.0274 20.623 36.4382 23.029 35.781 23.6199H35.7825Z" fill="#04329C"/>
<path d="M5.59668 22.1121C5.59668 22.6138 5.23943 23.0189 4.79837 23.0189C4.35732 23.0189 4.00006 22.6123 4.00006 22.1121C4.00006 21.6119 4.35732 21.2053 4.79837 21.2053C5.23943 21.2053 5.59668 21.6119 5.59668 22.1121Z" fill="#E7D888"/>
<path d="M5.74816 21.0195H4.48969V23.2046H5.74816V21.0195Z" fill="#049AFC"/>
<path d="M13.1255 19.4544C13.1255 19.7864 12.855 20.057 12.5198 20.057H4.84107C4.50734 20.057 4.23535 19.7879 4.23535 19.4544C4.23535 19.1224 4.50587 18.8518 4.84107 18.8518H12.5198C12.8536 18.8518 13.1255 19.1209 13.1255 19.4544Z" fill="#04329C"/>
<path d="M11.6906 20.0396H6.19802C5.45183 20.0396 4.84692 20.6413 4.84692 21.3837V23.2894C4.84692 24.0317 5.45183 24.6335 6.19802 24.6335H11.6906C12.4368 24.6335 13.0417 24.0317 13.0417 23.2894V21.3837C13.0417 20.6413 12.4368 20.0396 11.6906 20.0396Z" fill="#046FFC"/>
<path d="M26.3954 27.7881C26.3954 27.7881 26.6718 28.2093 25.6588 28.4653C24.6459 28.7212 19.2709 29.179 18.7195 29.0518C18.1668 28.9231 16.7686 27.1841 16.7686 27.1841L26.3968 27.7881H26.3954Z" fill="#2E2E2E"/>
<path d="M28.2361 18.852C28.2361 18.852 27.0217 18.9252 26.6718 18.9617C26.3219 18.9983 26.1381 19.1446 26.1381 19.7852C26.1381 20.4258 26.119 22.3666 26.119 22.7703C26.119 23.1739 26.266 23.759 26.9467 24.2533C26.9467 24.2533 28.9344 21.2126 28.9168 21.1585C28.8977 21.1029 28.2361 18.8506 28.2361 18.8506V18.852Z" fill="#046FFC"/>
<path d="M26.7262 25.3894C26.7262 25.3894 26.7526 26.7876 25.7132 26.8183C25.0693 26.8374 21.0189 25.7931 20.4661 26.3606C20.4661 26.3606 24.3503 27.3317 25.3633 27.5321C26.3763 27.7339 26.7629 27.6052 26.8173 27.2571C26.8732 26.909 26.7247 25.3894 26.7247 25.3894H26.7262Z" fill="#04329C"/>
<path d="M20.4852 20.408C20.4852 20.408 21.0012 20.408 20.7616 20.9213C20.522 21.4347 19.4546 23.3199 19.7678 24.6026C20.0897 25.9189 21.5908 26.58 21.5908 26.58L18.8298 26.0666C18.8298 26.0666 18.4064 24.6012 18.5358 23.7777C18.6651 22.9543 20.4867 20.408 20.4867 20.408H20.4852Z" fill="#046FFC"/>
<path d="M30.753 21.1379C30.4237 20.2867 28.7786 16.7736 28.4728 16.272C28.167 15.7703 27.5951 15.3549 26.7615 15.6167C26.7615 15.6167 27.6833 18.0826 28.0773 19.2161C28.4728 20.3511 28.6698 21.2228 27.9891 22.052C27.3099 22.8813 26.9144 23.0334 26.7835 24.5179C26.6527 26.0024 26.7174 27.1579 26.388 27.3319C26.0587 27.506 20.6852 26.2408 20.225 26.1531C19.7649 26.0653 18.4917 25.5856 18.821 24.0367C19.1503 22.4879 20.9925 20.1097 20.9925 20.1097C20.9925 20.1097 11.0349 18.8227 10.9702 18.8227C10.9056 18.8227 10.5101 21.7683 10.5101 21.7683C10.5101 21.7683 16.0806 27.1359 16.5849 27.3539C17.0891 27.5718 19.3047 28.0734 21.6511 28.0734C23.9975 28.0734 25.5765 28.0296 25.994 28.0296C26.4116 28.0296 26.9585 28.0076 27.0026 27.1783C27.0467 26.3491 27.5186 22.9925 30.7971 21.9862C30.7971 21.9862 31.0823 21.9862 30.753 21.135V21.1379Z" fill="#049AFC"/>
<path d="M5.96718 25.8914C7.69024 24.7432 11.82 25.0943 13.9282 25.6413C16.035 26.1883 17.2464 26.9634 17.9786 26.434C18.7122 25.906 18.08 22.2262 15.5146 20.8777C12.9491 19.5292 9.55884 20.0937 7.06688 22.172C4.57492 24.2504 4.40879 25.8182 4.59256 25.9996C5.00715 26.412 5.62022 26.1225 5.96718 25.8899V25.8914Z" fill="#04329C"/>
<path d="M10.6379 19.0538C10.6379 19.0538 12.9388 19.1094 14.2458 19.731C15.5528 20.3526 16.0129 20.8118 17.5228 20.8294C19.0327 20.8484 20.5249 20.4404 20.9939 20.1127C20.9939 20.1127 21.5541 18.4849 19.6399 18.6136C17.7257 18.7423 16.97 18.7599 15.9394 18.3211C14.9088 17.8809 12.8829 16.8015 11.7788 17.094C10.6747 17.3865 10.4718 18.2289 10.6379 19.0538Z" fill="#665246"/>
<path d="M27.5186 15.441L25.9691 15.8388C25.9691 15.8388 25.2119 14.6234 25.0928 14.3982C24.9737 14.173 25.009 14.0545 25.1531 13.9009C25.2957 13.7474 26.2484 12.7996 26.2484 12.7996L27.9273 12.2073L28.0699 14.5064C28.0699 14.5064 27.4628 14.3412 27.2716 14.5415C27.1217 14.701 27.5157 15.4425 27.5157 15.4425L27.5186 15.441Z" fill="#046FFC"/>
<path d="M26.3189 10.1642C26.2336 10.7565 25.9528 11.1982 25.6941 11.1499C25.4353 11.1017 25.2927 10.5825 25.378 9.99011C25.4633 9.39777 25.7441 8.95608 26.0028 9.00434C26.263 9.0526 26.4042 9.57182 26.3189 10.1642Z" fill="#049AFC"/>
<path d="M26.097 14.2213L25.85 14.1643C26.1308 12.9533 26.5733 10.9963 26.6042 10.7082C26.5204 10.6131 26.1514 10.3265 25.8323 10.0968L25.9808 9.89209C26.8056 10.4844 26.8409 10.597 26.8526 10.6351C26.8659 10.6775 26.8967 10.7769 26.097 14.2213Z" fill="#049AFC"/>
<path d="M26.3601 14.3808C26.4072 14.6601 26.2249 14.9219 25.9544 14.9673C25.6839 15.0126 25.4266 14.8225 25.381 14.5431C25.3339 14.2638 25.5163 14.002 25.7868 13.9566C26.0573 13.9113 26.3146 14.1014 26.3601 14.3808Z" fill="#04329C"/>
<path d="M25.9867 14.3939C25.9603 14.29 25.8559 14.2257 25.7544 14.252C25.7338 14.2578 25.7162 14.2666 25.7 14.2769L24.6694 14.8385L24.8723 15.1661L25.8882 14.6162C25.9 14.6103 25.9103 14.6045 25.9206 14.5957C25.9794 14.5504 26.0073 14.4714 25.9867 14.3924V14.3939Z" fill="#878787"/>
<path d="M24.9458 14.9569C24.9723 15.0607 24.9135 15.166 24.812 15.1923C24.7106 15.2187 24.6077 15.1543 24.5798 15.0505C24.5533 14.9466 24.6121 14.8413 24.7135 14.815C24.815 14.7887 24.9179 14.853 24.9458 14.9569Z" fill="white" stroke="#1D1D1B" stroke-width="0.183773" stroke-miterlimit="10"/>
<path d="M25.1987 14.8545C25.1473 14.657 24.9503 14.5356 24.7591 14.5854C24.7209 14.5956 24.6856 14.6132 24.6548 14.6336L23.9241 15.0929L24.3107 15.7145L25.0135 15.2757C25.0355 15.2655 25.0561 15.2523 25.0738 15.2377C25.184 15.1514 25.2384 15.0007 25.2002 14.853L25.1987 14.8545Z" fill="#04329C"/>
<path d="M24.4504 15.3193C24.5018 15.5168 24.3886 15.7171 24.196 15.7669C24.0049 15.8166 23.8079 15.6952 23.7564 15.4978C23.705 15.3003 23.8182 15.0999 24.0108 15.0502C24.2019 15.0005 24.3989 15.1219 24.4504 15.3193Z" fill="#049AFC"/>
<path d="M6.02155 24.8206C6.02155 24.8206 9.14715 23.1226 13.2019 24.1478C13.2019 24.1478 14.7868 21.3353 12.5227 21.2344C12.5227 21.2344 7.7593 21.075 6.02155 24.8206Z" fill="#046FFC"/>
</svg>
