<svg width="24" height="24" viewBox="0 0 24 24" fill="none" xmlns="http://www.w3.org/2000/svg">
<rect width="24" height="24" rx="12" fill="white"/>
<path d="M3.17076 7H20.315C20.4106 7 20.4857 7.07513 20.4857 7.17076V16.3917C20.4857 16.4874 20.4106 16.5625 20.315 16.5625H3.17076C3.07513 16.5625 3 16.4874 3 16.3917V7.17076C3 7.07513 3.07513 7 3.17076 7Z" fill="#87C443"/>
<path d="M4.02441 8.02466H19.461V15.5381H4.02441V8.02466Z" fill="#3D8033"/>
<path d="M18.7781 10.2307V13.3283C18.7781 13.4341 18.6858 13.5127 18.58 13.4956C18.3102 13.458 18.0062 13.5263 17.7057 13.7347C17.4598 14.042 17.3812 14.3699 17.4222 14.6568C17.4359 14.7592 17.3573 14.8514 17.2549 14.8514H6.23069C6.12482 14.8514 6.04627 14.7592 6.06335 14.6568C6.10433 14.3699 6.02578 14.042 5.77989 13.7347C5.47593 13.5263 5.1754 13.458 4.9056 13.4956C4.80314 13.5093 4.70752 13.4307 4.70752 13.3283V10.2307C4.70752 10.1248 4.79973 10.0463 4.9056 10.0633C5.1754 10.1009 5.47935 10.0326 5.77989 9.82428C6.02578 9.51692 6.10433 9.18906 6.06335 8.90218C6.04968 8.79973 6.12823 8.70752 6.23069 8.70752H17.2515C17.3539 8.70752 17.4359 8.79973 17.4188 8.90218C17.3778 9.18906 17.4564 9.51692 17.7023 9.82428C18.0062 10.0326 18.3068 10.1009 18.5766 10.0633C18.6858 10.0497 18.7781 10.1282 18.7781 10.2307Z" fill="#87C443"/>
<path d="M11.743 14.3427C13.1576 14.3427 14.3044 13.196 14.3044 11.7814C14.3044 10.3667 13.1576 9.21997 11.743 9.21997C10.3284 9.21997 9.18164 10.3667 9.18164 11.7814C9.18164 13.196 10.3284 14.3427 11.743 14.3427Z" fill="#3D8033"/>
<path d="M16.5413 12.6351C17.0128 12.6351 17.3951 12.2528 17.3951 11.7813C17.3951 11.3097 17.0128 10.9275 16.5413 10.9275C16.0698 10.9275 15.6875 11.3097 15.6875 11.7813C15.6875 12.2528 16.0698 12.6351 16.5413 12.6351Z" fill="#3D8033"/>
<path d="M6.94461 12.6351C7.41615 12.6351 7.79841 12.2528 7.79841 11.7813C7.79841 11.3097 7.41615 10.9275 6.94461 10.9275C6.47308 10.9275 6.09082 11.3097 6.09082 11.7813C6.09082 12.2528 6.47308 12.6351 6.94461 12.6351Z" fill="#3D8033"/>
<path d="M12.4361 11.8324C12.361 11.7641 12.2688 11.7026 12.1629 11.648C12.0946 11.6104 12.0195 11.5763 11.9443 11.5421V10.883C11.9546 10.8933 11.9614 10.9035 11.9716 10.9137C12.0229 10.9855 12.0468 11.0879 12.0468 11.2211H12.6922C12.6922 10.9786 12.6239 10.7805 12.4908 10.62C12.3576 10.4629 12.1731 10.3673 11.9409 10.3332V9.92334H11.637V10.3263C11.3945 10.3502 11.1998 10.4322 11.0564 10.5688C10.9129 10.7054 10.8378 10.8864 10.8378 11.1016C10.8378 11.2314 10.8583 11.3406 10.8993 11.4294C10.9403 11.5182 10.9983 11.6002 11.0735 11.6685C11.1486 11.7368 11.2408 11.7983 11.3467 11.8495C11.4252 11.8871 11.5072 11.9246 11.596 11.9656V12.6691C11.5482 12.6521 11.5072 12.6213 11.473 12.5838C11.4081 12.5086 11.3774 12.3959 11.3774 12.2525H10.7319C10.7319 12.5155 10.8071 12.7306 10.9539 12.8911C11.1008 13.0516 11.3159 13.1473 11.5926 13.178V13.5639H11.8965V13.1814C12.1356 13.1575 12.3234 13.079 12.46 12.9389C12.5966 12.8023 12.6683 12.6247 12.6683 12.4062C12.6683 12.2764 12.6478 12.1671 12.6035 12.0749C12.5727 11.9827 12.5147 11.9007 12.4361 11.8324ZM11.4901 11.1084C11.4901 11.0162 11.514 10.9411 11.5584 10.8898C11.5823 10.8625 11.6096 10.842 11.6404 10.8318V11.3953C11.613 11.3748 11.5857 11.3543 11.5687 11.3338C11.5174 11.2758 11.4901 11.204 11.4901 11.1084ZM11.9614 12.6213C11.9443 12.6384 11.9272 12.6521 11.9068 12.6623V12.1227C11.9272 12.1398 11.9443 12.1569 11.9614 12.1705C12.0126 12.2286 12.0365 12.3071 12.0365 12.4062C12.0365 12.4984 12.0126 12.5701 11.9614 12.6213Z" fill="#87C443"/>
</svg>
