<svg width="25" height="53" viewBox="0 0 25 53" fill="none" xmlns="http://www.w3.org/2000/svg">
<path fill-rule="evenodd" clip-rule="evenodd" d="M12.4999 11.133C13.2425 11.133 13.9547 10.838 14.4798 10.3129C15.0049 9.7878 15.2999 9.07561 15.2999 8.33301C15.2999 7.5904 15.0049 6.87821 14.4798 6.35311C13.9547 5.82801 13.2425 5.53301 12.4999 5.53301C11.7573 5.53301 11.0451 5.82801 10.52 6.35311C9.99494 6.87821 9.69994 7.5904 9.69994 8.33301C9.69994 9.07561 9.99494 9.7878 10.52 10.3129C11.0451 10.838 11.7573 11.133 12.4999 11.133ZM19.4999 8.33301C19.4999 10.1895 18.7624 11.97 17.4497 13.2828C16.1369 14.5955 14.3565 15.333 12.4999 15.333C10.6434 15.333 8.86295 14.5955 7.55019 13.2828C6.23744 11.97 5.49994 10.1895 5.49994 8.33301C5.49994 6.47649 6.23744 4.69601 7.55019 3.38326C8.86295 2.07051 10.6434 1.33301 12.4999 1.33301C14.3565 1.33301 16.1369 2.07051 17.4497 3.38326C18.7624 4.69601 19.4999 6.47649 19.4999 8.33301Z" fill="#0A72B9"/>
<line x1="13" y1="16" x2="13" y2="37" stroke="#0A72B9"/>
<path fill-rule="evenodd" clip-rule="evenodd" d="M15.2999 42.533H9.69994V48.133H15.2999V42.533ZM5.49994 38.333V52.333H19.4999V38.333H5.49994Z" fill="#0A72B9"/>
</svg>
