<svg width="16" height="16" viewBox="0 0 16 16" fill="none" xmlns="http://www.w3.org/2000/svg">
<path fill-rule="evenodd" clip-rule="evenodd" d="M7.99994 11.1333C8.74255 11.1333 9.45474 10.8383 9.97984 10.3132C10.5049 9.78805 10.7999 9.07586 10.7999 8.33325C10.7999 7.59065 10.5049 6.87846 9.97984 6.35335C9.45474 5.82825 8.74255 5.53325 7.99994 5.53325C7.25733 5.53325 6.54514 5.82825 6.02004 6.35335C5.49494 6.87846 5.19994 7.59065 5.19994 8.33325C5.19994 9.07586 5.49494 9.78805 6.02004 10.3132C6.54514 10.8383 7.25733 11.1333 7.99994 11.1333ZM14.9999 8.33325C14.9999 10.1898 14.2624 11.9702 12.9497 13.283C11.6369 14.5958 9.85645 15.3333 7.99994 15.3333C6.14342 15.3333 4.36295 14.5958 3.05019 13.283C1.73744 11.9702 0.999939 10.1898 0.999939 8.33325C0.999939 6.47674 1.73744 4.69626 3.05019 3.3835C4.36295 2.07075 6.14342 1.33325 7.99994 1.33325C9.85645 1.33325 11.6369 2.07075 12.9497 3.3835C14.2624 4.69626 14.9999 6.47674 14.9999 8.33325Z" fill="#0A72B9"/>
</svg>
