<svg width="101" height="157" viewBox="0 0 101 157" fill="none" xmlns="http://www.w3.org/2000/svg">
<g clip-path="url(#clip0_4032_764)">
<path d="M51.2888 0V157C48.5818 155.836 45.9645 154.887 43.5085 153.597C31.7306 147.419 23.8786 137.874 19.7733 125.267C17.9627 119.715 17.6938 113.985 17.7118 108.201C17.7655 97.0617 17.7297 85.9229 17.7297 74.7662C17.7297 74.408 17.6938 74.0498 17.658 73.5842H0.0537806C0.0358537 73.1365 0 72.7784 0 72.4023C0 63.6453 0 54.9061 0.0358537 46.1491C0.0358537 45.576 0.322684 44.8239 0.735002 44.4657C17.2815 29.8707 33.8639 15.2756 50.4462 0.680506C50.6613 0.483518 50.8944 0.322345 51.2888 0Z" fill="white"/>
<path d="M58.0472 73.3514V45.6835H100.982C100.032 47.0445 99.2073 48.2443 98.3647 49.4442C92.9508 57.1804 87.5548 64.9167 82.123 72.6351C81.8899 72.9754 81.3701 73.3335 80.9757 73.3335C73.3747 73.3693 65.7737 73.3693 58.0472 73.3693V73.3514Z" fill="white"/>
</g>
<defs>
<clipPath id="clip0_4032_764">
<rect width="101" height="157" fill="white"/>
</clipPath>
</defs>
</svg>
