<svg width="40" height="40" viewBox="0 0 40 40" fill="none" xmlns="http://www.w3.org/2000/svg">
<path d="M29.008 30.3681L35.4844 36.8441C35.708 37.0624 36.0086 37.1838 36.3211 37.182C36.6336 37.1802 36.9328 37.0552 37.1538 36.8343C37.3748 36.6133 37.4998 36.3142 37.5017 36.0017C37.5036 35.6892 37.3823 35.3885 37.164 35.1649L5.1552 3.15608C4.93162 2.93773 4.63099 2.8163 4.31848 2.81814C4.00597 2.81997 3.70678 2.9449 3.48578 3.16586C3.26477 3.38681 3.13977 3.68597 3.13786 3.99848C3.13595 4.31098 3.2573 4.61164 3.4756 4.83528L9.748 11.1081C9.6032 11.4601 9.476 11.8205 9.3672 12.1893C4.684 12.5641 1 16.4837 1 21.2637C1 26.2917 5.076 30.3677 10.104 30.3677L29.008 30.3681ZM39 21.2629C39 24.4629 37.352 27.2749 34.856 28.8949L12.832 6.87488C14.8324 5.17317 17.3737 4.24002 20 4.24288C25.032 4.24288 29.28 7.59487 30.632 12.1869C35.316 12.5629 39 16.4829 39 21.2629Z" fill="#1E1E1C"/>
</svg>
