<svg width="40" height="40" viewBox="0 0 40 40" fill="none" xmlns="http://www.w3.org/2000/svg">
<g clip-path="url(#clip0_5481_12691)">
<path d="M16.4549 7.14218C16.4549 7.14218 16.2369 8.45917 16.6255 9.63792L17.8079 9.55556V6.49912L17.2178 6.1355L16.6505 6.48405L16.4549 7.14218Z" fill="#142738"/>
<path d="M24.6859 7.14218C24.6859 7.14218 24.904 8.45917 24.5153 9.63792L23.3329 9.55556V6.49912L23.9227 6.1355L24.49 6.48405L24.6856 7.14218H24.6859Z" fill="#142738"/>
<path d="M9.77693 24.0432C11.3546 24.6237 12.0749 24.9774 12.1771 24.8278C12.5345 24.3053 13.2157 21.6029 13.2157 21.6029C13.2157 21.6029 13.2305 22.9085 12.9323 26.7268C12.9047 27.0842 12.8676 27.4673 12.8253 27.8699C12.7183 28.8696 12.5686 29.9888 12.3969 31.1307C12.133 32.8886 11.8146 34.7026 11.5142 36.2259C11.4848 36.3763 11.2075 36.5175 11.2075 36.6609C11.2075 36.9285 11.3359 36.9315 11.3359 37.3734C11.3359 37.6444 10.9873 37.6675 11.0612 38.0003H28.6601C29.0336 37.5105 28.5494 37.5234 28.5869 37.0734C28.6182 36.7024 28.9127 36.6285 28.9127 36.1983C28.9127 35.7682 28.7215 35.5049 28.666 35.2935C27.6004 31.2572 27.5905 27.4187 27.5626 24.6704C27.5497 23.377 27.6365 22.5534 27.6365 22.5534C27.6365 22.5534 27.7501 23.6215 27.8295 24.0266C27.9486 24.6303 28.0814 25.105 28.0814 25.105C30.1587 24.8679 32.7177 24.4524 32.7177 24.4524C32.4732 22.4342 30.8326 17.1159 30.0109 16.4206C29.6712 16.1346 27.4111 15.4687 25.8768 15.0264H25.8757C25.0808 14.7974 24.4808 14.6275 24.4422 14.6007C24.3278 14.5213 23.7487 13.7595 23.7487 13.7595C23.5513 13.8084 23.3546 13.7466 23.3546 13.7466L21.8968 13.8517L20.5923 13.947L17.83 13.7466C17.83 13.7466 17.6333 13.8084 17.4359 13.7595C17.4359 13.7595 16.8571 14.5213 16.7424 14.6007C16.6281 14.679 11.3351 15.9327 10.9965 16.1831C9.83135 17.0435 8.03124 22.3453 7.58636 23.206C7.52275 23.3288 8.41177 23.5391 9.7762 24.0432H9.77693Z" fill="url(#paint0_linear_5481_12691)"/>
<path opacity="0.5" d="M11.0616 37.9999H14.2563C14.0573 37.7002 14.1651 37.3612 14.5805 37.0039C15.3229 36.366 15.5155 36.4998 16.0946 36.4553C16.6726 36.4112 16.9549 35.9207 16.9549 35.9207C17.6087 35.7619 17.6223 35.3872 17.6223 35.3872C18.1863 35.1869 18.2308 34.7041 18.2308 34.7041C18.5271 34.5111 18.29 33.9923 18.3425 33.7254C18.3944 33.4577 21.1729 30.0704 21.1729 30.0704L16.806 29.2883L12.3969 31.13C12.133 32.8878 11.8146 34.7019 11.5142 36.2252C11.4848 36.3755 11.2075 36.5167 11.2075 36.6601C11.2075 36.9278 11.3359 36.9307 11.3359 37.3726C11.3359 37.6436 10.9877 37.6668 11.0612 37.9995L11.0616 37.9999Z" fill="url(#paint1_linear_5481_12691)"/>
<path opacity="0.5" d="M16.1277 23.5259L14.2048 27.7559L12.8257 27.8695C12.8683 27.467 12.9051 27.0838 12.9326 26.7265C13.2308 22.9082 13.2161 21.6026 13.2161 21.6026C13.2161 21.6026 12.5348 24.3046 12.1774 24.8275C12.0749 24.9771 11.355 24.6234 9.7773 24.0428C8.41288 23.5388 7.52386 23.3285 7.58746 23.2057C7.58746 23.2057 11.3763 24.2149 11.9098 23.7403C12.4407 23.2685 13.4551 19.922 13.3757 17.7358C13.3933 18.1531 13.5106 21.1026 13.493 23.5704C13.4727 26.2327 16.1277 23.5259 16.1277 23.5259Z" fill="url(#paint2_linear_5481_12691)"/>
<path d="M20.8864 19.5558C20.8864 19.7217 20.2232 19.7217 20.2232 19.5558V15.3865H20.8864V19.5558Z" fill="url(#paint3_linear_5481_12691)"/>
<path d="M23.6561 13.9084C23.6561 13.9084 22.5321 15.7085 20.5934 15.7085C18.6547 15.7085 17.5579 13.947 17.5579 13.947C17.5579 13.947 17.9421 13.2363 17.9863 12.6693C18.0113 12.3572 18.0223 12.0101 17.9991 11.6869L23.1965 11.1248C23.1965 11.1248 23.141 11.9447 23.2002 12.7587C23.2307 13.1815 23.5395 13.6036 23.6557 13.908L23.6561 13.9084Z" fill="#F7A596"/>
<path d="M23.2002 12.7587C22.4987 13.3587 21.4924 13.947 20.593 13.947C19.6253 13.947 18.3477 13.0183 17.9859 12.6693C18.0109 12.3572 18.0219 12.0101 17.9988 11.6869L23.1961 11.1248C23.1961 11.1248 23.1406 11.9447 23.1998 12.7587H23.2002Z" fill="#E27C6C"/>
<path d="M23.9576 6.30792C23.9576 6.30792 23.7326 10.603 23.4862 11.1976C23.0675 12.2098 21.4913 13.4164 20.5552 13.4164C19.6191 13.4164 18.2995 12.4473 17.6234 11.1976C17.3171 10.6317 17.152 6.30792 17.152 6.30792C17.152 6.30792 17.9576 5.00049 20.5552 5.00049C23.1517 5.00049 23.9572 6.30792 23.9572 6.30792H23.9576Z" fill="#F7A596"/>
<path d="M17.5186 8.78906C17.5186 8.78906 17.83 7.35956 19.1654 7.03344C20.5007 6.70732 22.1178 6.96836 22.7038 7.46472C23.2899 7.9607 23.5763 8.78943 23.5763 8.78943L23.6759 8.17763L23.6462 6.2992L23.3329 5.52783L18.8665 5.56607L17.9844 5.92859L17.5186 6.6654C17.5186 6.6654 17.3778 8.48316 17.5186 8.78943V8.78906Z" fill="#E27C6C"/>
<path d="M17.3428 8.78894H17.5182C17.5182 8.78894 17.6962 7.06273 18.2675 6.49174L17.5333 5.92773L17.0987 6.66197C17.0987 6.66197 17.305 8.32053 17.3428 8.78857V8.78894Z" fill="#142738"/>
<path d="M23.7521 8.78894H23.5767C23.5767 8.78894 23.3987 7.06273 22.8274 6.49174L23.5616 5.92773L23.9962 6.66197C23.9962 6.66197 23.7899 8.32053 23.7521 8.78857V8.78894Z" fill="#142738"/>
<path d="M23.6759 9.90996C23.6759 9.90996 23.78 10.3813 24.1348 10.1975C24.7304 9.88901 24.8418 7.35981 24.3227 7.33922C23.9591 7.32488 23.8642 7.57416 23.8642 7.57416L23.6759 9.91033V9.90996Z" fill="#F7A596"/>
<path d="M17.4333 9.90996C17.4333 9.90996 17.3292 10.3813 16.9744 10.1975C16.3788 9.88901 16.2674 7.35981 16.7866 7.33922C17.1502 7.32488 17.245 7.57416 17.245 7.57416L17.4333 9.91033V9.90996Z" fill="#F7A596"/>
<path d="M21.1666 7.19079C21.1666 7.19079 21.1482 7.51801 21.2828 7.51801C21.6508 7.51801 22.6865 7.39006 23.1248 7.67758C23.1248 7.67758 22.4531 6.80216 21.1662 7.19079H21.1666Z" fill="#142738"/>
<path d="M19.9426 7.19079C19.9426 7.19079 19.961 7.51801 19.8265 7.51801C19.4584 7.51801 18.4227 7.39006 17.9844 7.67758C17.9844 7.67758 18.6562 6.80216 19.943 7.19079H19.9426Z" fill="#142738"/>
<path d="M21.396 8.14524C21.396 8.14524 21.9619 7.68344 22.7888 8.17722C22.7888 8.17722 21.7931 7.24261 21.396 8.14524Z" fill="#142738"/>
<path d="M21.1026 9.87378C21.1026 9.87378 20.9232 10.1657 20.5548 10.1657C20.2055 10.1657 20.0077 9.87378 20.0077 9.87378H21.1026Z" fill="#E27C6C"/>
<path d="M20.9026 11.6187C20.9026 11.6187 20.7886 11.8043 20.5548 11.8043C20.3331 11.8043 20.2077 11.6187 20.2077 11.6187C20.4397 11.6539 20.6714 11.6539 20.9026 11.6187Z" fill="#E27C6C"/>
<path d="M21.9229 8.56804C22.0703 8.56804 22.1898 8.39306 22.1898 8.17721C22.1898 7.96136 22.0703 7.78638 21.9229 7.78638C21.7755 7.78638 21.656 7.96136 21.656 8.17721C21.656 8.39306 21.7755 8.56804 21.9229 8.56804Z" fill="#142738"/>
<path d="M19.6603 8.14524C19.6603 8.14524 19.0944 7.68344 18.2675 8.17722C18.2675 8.17722 19.2632 7.24261 19.6603 8.14524Z" fill="#142738"/>
<path d="M19.1334 8.56804C19.2808 8.56804 19.4003 8.39306 19.4003 8.17721C19.4003 7.96136 19.2808 7.78638 19.1334 7.78638C18.986 7.78638 18.8665 7.96136 18.8665 8.17721C18.8665 8.39306 18.986 8.56804 19.1334 8.56804Z" fill="#142738"/>
<path d="M21.7188 8.10068C21.7188 8.13046 21.7277 8.15473 21.7387 8.15473C21.7497 8.15473 21.7585 8.13046 21.7585 8.10068C21.7585 8.0709 21.7497 8.04663 21.7387 8.04663C21.7277 8.04663 21.7188 8.0709 21.7188 8.10068Z" fill="url(#paint4_linear_5481_12691)"/>
<path d="M18.9639 8.15473C18.9749 8.15473 18.9837 8.13053 18.9837 8.10068C18.9837 8.07083 18.9749 8.04663 18.9639 8.04663C18.9529 8.04663 18.944 8.07083 18.944 8.10068C18.944 8.13053 18.9529 8.15473 18.9639 8.15473Z" fill="url(#paint5_linear_5481_12691)"/>
<path d="M21.4997 11.0323C21.4997 11.0323 21.1809 11.2797 20.5548 11.2797C19.9886 11.2797 19.6099 11.0323 19.6099 11.0323C19.9397 11.0183 20.0632 10.9878 20.2243 10.9411C20.3857 10.8951 20.5548 10.9918 20.5548 10.9918C20.5548 10.9918 20.7239 10.8951 20.8853 10.9411C21.0467 10.9878 21.1986 11.0268 21.4997 11.0323Z" fill="#E27C6C"/>
<path d="M24.0197 7.78924C24.0197 7.78924 24.2344 7.21604 24.4264 7.90028C24.5742 8.42825 24.3628 9.80738 24.1333 9.92136C23.9043 10.0353 23.8502 9.74193 23.8502 9.74193C23.8502 9.74193 24.0572 10.0522 24.2072 9.47537C24.3572 8.8985 24.3352 8.30765 24.3241 8.14073C24.3212 8.09735 24.3058 8.32346 24.1532 8.3606C24.1532 8.3606 24.2859 8.08191 24.2127 7.84218C24.1697 7.70137 24.0197 7.78887 24.0197 7.78887V7.78924Z" fill="#E27C6C"/>
<path d="M23.9385 8.53809C23.9385 8.53809 23.8418 8.63993 23.8712 8.79215C23.9006 8.94436 23.8829 8.94988 23.841 8.97377C23.841 8.97377 23.9561 8.98002 23.9598 8.86237C23.9635 8.74472 23.8576 8.70501 23.9385 8.53809Z" fill="#E27C6C"/>
<path d="M17.0391 7.78924C17.0391 7.78924 16.8244 7.21604 16.6325 7.90028C16.4847 8.42825 16.6961 9.80738 16.9255 9.92136C17.155 10.0353 17.2086 9.74193 17.2086 9.74193C17.2086 9.74193 17.0016 10.0522 16.8516 9.47537C16.7016 8.8985 16.7237 8.30765 16.7347 8.14073C16.7377 8.09735 16.7531 8.32346 16.9057 8.3606C16.9057 8.3606 16.773 8.08191 16.8461 7.84218C16.8891 7.70137 17.0391 7.78887 17.0391 7.78887V7.78924Z" fill="#E27C6C"/>
<path d="M17.1204 8.53809C17.1204 8.53809 17.2171 8.63993 17.1877 8.79215C17.1583 8.94436 17.1759 8.94988 17.2178 8.97377C17.2178 8.97377 17.1028 8.98002 17.0991 8.86237C17.0954 8.74472 17.2013 8.70501 17.1204 8.53809Z" fill="#E27C6C"/>
<path d="M24.4429 14.6007C24.4429 14.6007 23.5759 16.0064 22.5829 16.8358C21.8016 17.4888 21.4997 17.548 21.4997 17.548C21.4997 17.548 21.1607 16.6836 20.593 15.7085C20.593 15.7085 22.7891 15.3725 23.7495 13.7595C23.7495 13.7595 24.3282 14.521 24.4429 14.6004V14.6007Z" fill="url(#paint6_linear_5481_12691)"/>
<path d="M16.7435 14.6006C16.7435 14.6006 17.484 15.8055 18.5448 16.6769C19.3202 17.314 19.6647 17.4986 19.6647 17.4986C19.6647 17.4986 19.9217 16.45 20.593 15.7088C20.593 15.7088 18.397 15.3727 17.4366 13.7598C17.4366 13.7598 16.8579 14.5212 16.7432 14.6006H16.7435Z" fill="url(#paint7_linear_5481_12691)"/>
<path d="M24.7374 6.94479C24.7374 6.94479 24.2418 6.74809 24.0116 6.7297C23.8296 6.71499 23.5925 7.39812 23.4837 7.36871C23.3664 7.33636 22.145 6.59881 20.5552 6.59881C19.6533 6.59881 18.9518 6.78338 18.4595 6.97089C17.9664 7.15914 17.6859 7.35217 17.6267 7.36871C17.5179 7.39812 17.2803 6.71499 17.0987 6.7297C16.8689 6.74809 16.3729 6.94479 16.3729 6.94479C16.3729 6.93927 16.3737 4.52221 17.8057 3.07029C17.8065 3.06845 17.8076 3.06771 17.8076 3.06771C18.4227 2.44488 19.3007 2 20.5552 2C24.7356 2 24.737 6.93633 24.737 6.94479H24.7374Z" fill="url(#paint8_linear_5481_12691)"/>
<path opacity="0.5" d="M24.7374 6.94481C24.7374 6.94481 24.2418 6.74811 24.0116 6.72973C23.8296 6.71502 23.5925 7.39815 23.4837 7.36874C23.4245 7.35219 23.1439 7.15917 22.6509 6.97092C22.3869 6.4639 21.6188 5.63297 21.7718 5.6793C22.9858 6.04697 22.5542 3.80418 22.2439 3.56152C21.9347 3.31959 20.5555 3.32437 20.5555 3.32437C20.5555 3.32437 19.1764 3.31996 18.8672 3.56152C18.5569 3.80418 18.4289 5.83188 19.333 5.72967C19.4919 5.71165 18.7242 6.4639 18.4602 6.97092C17.9671 7.15917 17.6866 7.35219 17.6274 7.36874C17.5186 7.39815 17.2811 6.71502 17.0994 6.72973C16.8697 6.74811 16.3737 6.94481 16.3737 6.94481C16.3737 6.9393 16.3744 4.52224 17.8065 3.07031C17.7649 3.12951 17.1039 4.0906 17.0597 5.16419C17.0145 6.27198 17.0274 6.23043 17.6837 6.04402C18.34 5.85651 18.4414 3.64094 18.7268 3.40379C19.0121 3.16664 20.0801 3.16664 20.5555 3.16664C21.0309 3.16664 22.099 3.16664 22.3843 3.40379C22.6696 3.64094 22.7711 5.85688 23.4274 6.04402C24.0837 6.23043 24.0966 6.27198 24.0513 5.16419C24.0069 4.0906 23.3462 3.12951 23.3046 3.07031C24.7363 4.52261 24.7374 6.9393 24.7374 6.94481Z" fill="url(#paint9_linear_5481_12691)"/>
<path d="M24.0116 6.72958C23.8296 6.71488 23.5925 7.39801 23.4837 7.36859C23.3903 7.34285 22.6038 6.87481 21.4905 6.68068C21.4611 6.6759 21.4332 6.67149 21.4056 6.66671C21.4026 6.66671 21.4001 6.66598 21.3964 6.66598V6.66524C21.1324 6.62369 20.85 6.59869 20.5552 6.59869C20.0437 6.59869 19.597 6.65789 19.2165 6.74355C18.3219 6.94393 17.7921 7.28991 17.6524 7.3583C17.6414 7.36381 17.6322 7.36675 17.6267 7.36859C17.5179 7.39801 17.2803 6.71488 17.0987 6.72958C17.1164 6.71561 17.1347 6.70274 17.1524 6.69098C17.2575 6.61818 17.5105 6.44905 17.8789 6.26448C18.936 5.73357 20.9394 5.06624 23.0645 6.13616L23.0656 6.1369C23.3796 6.29389 23.6954 6.48949 24.012 6.72958H24.0116Z" fill="url(#paint10_linear_5481_12691)"/>
<path d="M21.3964 6.66504C21.3993 6.66577 21.4019 6.66577 21.4056 6.66688C21.4026 6.66688 21.4001 6.66614 21.3964 6.66614V6.66541V6.66504Z" fill="url(#paint11_linear_5481_12691)"/>
<path opacity="0.5" d="M24.0116 6.72965C23.8296 6.71494 23.5925 7.39807 23.4837 7.36866C23.3903 7.34292 22.6038 6.87488 21.4905 6.68075C22.267 6.80796 23.4697 6.97157 23.5123 6.72229C23.5557 6.46934 23.0932 6.15535 23.0656 6.13696C23.3796 6.29396 23.6951 6.48956 24.012 6.72965H24.0116Z" fill="url(#paint12_linear_5481_12691)"/>
<path opacity="0.5" d="M19.2169 6.74323C18.3223 6.94361 17.7925 7.28959 17.6528 7.35798C17.6418 7.36349 17.6326 7.36643 17.627 7.36827C17.5182 7.39769 17.2807 6.71456 17.0991 6.72926C17.1167 6.71529 17.1351 6.70242 17.1528 6.69066C17.2579 6.61786 17.5109 6.44873 17.8793 6.26416C17.7407 6.38329 17.5719 6.56418 17.5987 6.72191C17.6348 6.93038 18.4852 6.85023 19.2172 6.74323H19.2169Z" fill="url(#paint13_linear_5481_12691)"/>
<path opacity="0.5" d="M27.6795 37.6266C27.7773 37.6943 27.5405 37.8325 27.071 37.9995H28.6601C29.0336 37.5097 28.5494 37.5226 28.5869 37.0726C28.6182 36.7016 28.9127 36.6277 28.9127 36.1975C28.9127 35.7673 28.7215 35.5041 28.666 35.2927C27.6005 31.2564 27.5905 27.4179 27.5626 24.6696C27.5497 23.3761 27.6365 22.5526 27.6365 22.5526C27.6365 22.5526 27.7501 23.6206 27.8295 24.0258C27.9486 24.6295 28.0814 25.1042 28.0814 25.1042C30.1587 24.867 32.7177 24.4516 32.7177 24.4516C32.7177 24.4516 28.7645 24.5402 28.349 24.1552C27.9336 23.7692 27.5773 21.2473 27.963 18.8726C27.963 18.8726 26.9835 22.4934 27.1618 25.8759C27.3401 29.2585 27.5409 31.8112 27.6001 33.4132C27.6593 35.0158 25.5694 35.9037 27.3696 36.1225C29.1697 36.3413 27.4582 36.7567 24.8477 37.113C22.2362 37.4686 27.3063 37.3696 27.6791 37.6263L27.6795 37.6266Z" fill="url(#paint14_linear_5481_12691)"/>
<path d="M29.1623 35.0464C29.1642 35.0593 29.1653 35.0684 29.1653 35.0769C29.1642 35.0666 29.1634 35.0567 29.1623 35.0464Z" fill="url(#paint15_linear_5481_12691)"/>
<path d="M29.1679 35.1008L29.1671 35.0995C29.1679 35.0975 29.1671 35.0955 29.1671 35.0942C29.1679 35.0983 29.1679 35.1004 29.1679 35.1004V35.1008Z" fill="url(#paint16_linear_5481_12691)"/>
<path d="M14.0004 35.2965C13.0485 35.2817 11.6032 35.2817 11.6032 35.2817L11.6024 30.8774C11.6024 30.8774 11.0899 30.7881 10.9612 31.4124C10.8325 32.0363 10.6884 32.582 10.6884 32.582C10.6884 32.582 10.1792 30.4796 9.64274 29.5766C9.64274 29.5766 10.9127 28.7869 12.2436 24.969L10.12 24.1634L8.23971 23.5259C7.67387 25.158 6.31055 29.2674 6.51571 30.4064C6.77344 31.8382 7.48158 33.204 9.39235 34.3493L9.54273 34.4486C9.54273 34.4486 10.2549 37.1311 14.5875 35.7483C14.5875 35.7483 14.9523 35.3115 14.0007 35.2968L14.0004 35.2965Z" fill="#F69C89"/>
<path d="M7.80365 27.8147C7.80365 27.8147 9.51368 28.2331 9.64273 29.5769C9.64273 29.5769 9.34235 28.6813 7.80365 27.8147Z" fill="#E67B69"/>
<path d="M10.3972 24.2686L8.24044 23.5259L8.15367 23.7726C8.15367 23.7726 10.8656 25.351 11.2531 27.3441C11.2531 27.3441 12.1249 25.5778 12.2907 24.9528L10.3968 24.2686H10.3972Z" fill="#F3826F"/>
<path d="M29.6664 21.9216L28.3509 23.0599V35.3603L29.6664 34.122V21.9216Z" fill="#C18050"/>
<path d="M11.3671 23.06L13.097 21.9026L29.6664 21.9217L28.3509 23.0835L11.3671 23.06Z" fill="#EFBB78"/>
<path d="M28.3509 23.0601H11.3671V35.3604H28.3509V23.0601Z" fill="#EDA863"/>
<g opacity="0.78">
<path d="M23.805 34.7938H22.4773C22.3983 34.7938 22.3343 34.7254 22.3343 34.6416V33.2279C22.3343 33.1441 22.3983 33.0757 22.4773 33.0757H23.805C23.884 33.0757 23.948 33.1441 23.948 33.2279V34.6416C23.948 34.7254 23.884 34.7938 23.805 34.7938ZM22.4773 33.1661C22.4454 33.1661 22.4193 33.1937 22.4193 33.2279V34.6416C22.4193 34.6758 22.4454 34.7034 22.4773 34.7034H23.805C23.837 34.7034 23.8631 34.6758 23.8631 34.6416V33.2279C23.8631 33.1937 23.837 33.1661 23.805 33.1661H22.4773Z" fill="#533225"/>
<path d="M25.6731 34.7938H24.3455C24.2664 34.7938 24.2024 34.7254 24.2024 34.6416V33.2279C24.2024 33.1441 24.2664 33.0757 24.3455 33.0757H25.6731C25.7522 33.0757 25.8161 33.1441 25.8161 33.2279V34.6416C25.8161 34.7254 25.7522 34.7938 25.6731 34.7938ZM24.3455 33.1661C24.3135 33.1661 24.2874 33.1937 24.2874 33.2279V34.6416C24.2874 34.6758 24.3135 34.7034 24.3455 34.7034H25.6731C25.7051 34.7034 25.7312 34.6758 25.7312 34.6416V33.2279C25.7312 33.1937 25.7051 33.1661 25.6731 33.1661H24.3455Z" fill="#533225"/>
<path d="M27.5416 34.7938H26.214C26.1349 34.7938 26.0709 34.7254 26.0709 34.6416V33.2279C26.0709 33.1441 26.1349 33.0757 26.214 33.0757H27.5416C27.6207 33.0757 27.6846 33.1441 27.6846 33.2279V34.6416C27.6846 34.7254 27.6207 34.7938 27.5416 34.7938ZM26.214 33.1661C26.182 33.1661 26.1559 33.1937 26.1559 33.2279V34.6416C26.1559 34.6758 26.182 34.7034 26.214 34.7034H27.5416C27.5736 34.7034 27.5997 34.6758 27.5997 34.6416V33.2279C27.5997 33.1937 27.5736 33.1661 27.5416 33.1661H26.214Z" fill="#533225"/>
<path d="M27.3254 33.4713C27.3254 33.4596 27.3236 33.4489 27.3232 33.4375H26.4324C26.432 33.4489 26.4302 33.4599 26.4302 33.4713C26.4302 33.8026 26.5982 34.0758 26.8162 34.1199V34.2905C26.7114 34.3144 26.6335 34.4037 26.6335 34.5107C26.6335 34.5148 26.6346 34.5184 26.6346 34.5225H27.1085C27.1085 34.5184 27.1096 34.5148 27.1096 34.5107C27.1096 34.4041 27.0324 34.3151 26.9284 34.2909V34.1225C27.1523 34.0861 27.3262 33.8085 27.3262 33.4713H27.3254Z" fill="#533225"/>
<path d="M25.4489 34.5226H24.5584C24.5495 34.5226 24.5422 34.5153 24.5422 34.5065V34.4002C24.5422 34.3914 24.5495 34.384 24.5584 34.384H25.4489C25.4577 34.384 25.465 34.3914 25.465 34.4002V34.5065C25.465 34.5153 25.4577 34.5226 25.4489 34.5226Z" fill="#533225"/>
<path d="M24.7749 33.4782C24.7631 33.4591 24.7356 33.4591 24.7238 33.4782L24.5933 33.6874H24.6558V34.2885C24.6558 34.3051 24.6683 34.3183 24.6837 34.3183H24.815C24.8304 34.3183 24.8429 34.3051 24.8429 34.2885V33.6874H24.9054L24.7749 33.4782Z" fill="#533225"/>
<path d="M25.386 33.6874L25.2555 33.4782C25.2437 33.4591 25.2161 33.4591 25.2044 33.4782L25.0738 33.6874H25.1363V34.2885C25.1363 34.3051 25.1488 34.3183 25.1643 34.3183H25.2955C25.311 34.3183 25.3235 34.3051 25.3235 34.2885V33.6874H25.386Z" fill="#533225"/>
<path d="M23.5362 33.8078C23.5057 33.5942 23.3167 33.4294 23.0873 33.4294C22.8579 33.4294 22.6689 33.5942 22.6384 33.8078H23.0046V34.4258C23.0046 34.4725 23.0403 34.5104 23.084 34.5104H23.0903C23.134 34.5104 23.1697 34.4725 23.1697 34.4258V33.8078H23.5362Z" fill="#533225"/>
</g>
<path d="M12.6142 22.3281L29.1586 22.37L29.0086 22.5028L12.4216 22.4414L12.6142 22.3281Z" fill="#DC9D5D"/>
<path d="M32.1456 24.5426L29.6609 24.9059V29.019C30.0182 29.4356 30.2433 29.5624 30.2433 29.5624C29.7065 30.4654 29.1976 32.5677 29.1976 32.5677C29.1976 32.5677 29.0535 32.0221 28.9248 31.3982C28.7961 30.7742 28.2836 30.8632 28.2836 30.8632L28.2828 35.2675C28.2828 35.2675 26.8375 35.2675 25.8856 35.2822C24.9337 35.2969 25.2988 35.7337 25.2988 35.7337C29.6311 37.1165 30.3436 34.434 30.3436 34.434L30.494 34.3347C32.4044 33.1895 33.1129 31.8236 33.3707 30.3919C33.6284 28.9602 32.146 24.5422 32.146 24.5422L32.1456 24.5426Z" fill="#F69C89"/>
<path d="M32.0823 27.8C32.0823 27.8 30.3719 28.2185 30.2433 29.5623C30.2433 29.5623 30.5436 28.6666 32.0823 27.8Z" fill="#E67B69"/>
<path d="M32.1456 24.5425L29.6609 24.9057V26.8698C30.1962 25.4348 32.346 25.1675 32.346 25.1675L32.1456 24.5428V24.5425Z" fill="#F3826F"/>
<path d="M11.3671 30.9473V35.3604H14.3831L11.2263 35.5358L11.3671 30.9473Z" fill="#E67B69"/>
<path d="M28.2832 30.8999L28.2825 35.2674L25.465 35.3333L28.5637 35.4509L28.2832 30.8999Z" fill="#E67B69"/>
</g>
<defs>
<linearGradient id="paint0_linear_5481_12691" x1="20.1511" y1="-10.5902" x2="20.1511" y2="54.1487" gradientUnits="userSpaceOnUse">
<stop stop-color="#4773B8"/>
<stop offset="1" stop-color="#2C539F"/>
</linearGradient>
<linearGradient id="paint1_linear_5481_12691" x1="16.1122" y1="17.5839" x2="16.1122" y2="64.8754" gradientUnits="userSpaceOnUse">
<stop stop-color="white"/>
<stop offset="1" stop-color="#2C539F"/>
</linearGradient>
<linearGradient id="paint2_linear_5481_12691" x1="11.8557" y1="5.72702" x2="11.8557" y2="54.2473" gradientUnits="userSpaceOnUse">
<stop stop-color="white"/>
<stop offset="1" stop-color="#2C539F"/>
</linearGradient>
<linearGradient id="paint3_linear_5481_12691" x1="20.5548" y1="-2.90288" x2="20.5548" y2="23.3182" gradientUnits="userSpaceOnUse">
<stop stop-color="#4773B8"/>
<stop offset="1" stop-color="#2C539F"/>
</linearGradient>
<linearGradient id="paint4_linear_5481_12691" x1="21.7387" y1="8.04663" x2="21.7387" y2="8.15473" gradientUnits="userSpaceOnUse">
<stop stop-color="#FFF6F4"/>
<stop offset="1" stop-color="#DFDFDF"/>
</linearGradient>
<linearGradient id="paint5_linear_5481_12691" x1="18.9639" y1="32.8947" x2="18.9639" y2="32.8947" gradientUnits="userSpaceOnUse">
<stop stop-color="#FFF6F4"/>
<stop offset="1" stop-color="#DFDFDF"/>
</linearGradient>
<linearGradient id="paint6_linear_5481_12691" x1="22.5182" y1="4.73875" x2="22.5182" y2="17.2322" gradientUnits="userSpaceOnUse">
<stop stop-color="#4773B8"/>
<stop offset="1" stop-color="#2C539F"/>
</linearGradient>
<linearGradient id="paint7_linear_5481_12691" x1="18.6683" y1="4.85665" x2="18.6683" y2="17.1868" gradientUnits="userSpaceOnUse">
<stop stop-color="#4773B8"/>
<stop offset="1" stop-color="#2C539F"/>
</linearGradient>
<linearGradient id="paint8_linear_5481_12691" x1="20.5552" y1="2" x2="20.5552" y2="7.36945" gradientUnits="userSpaceOnUse">
<stop stop-color="#4773B8"/>
<stop offset="1" stop-color="#2C539F"/>
</linearGradient>
<linearGradient id="paint9_linear_5481_12691" x1="20.5552" y1="-0.474022" x2="20.5552" y2="18.4385" gradientUnits="userSpaceOnUse">
<stop stop-color="white"/>
<stop offset="1" stop-color="#2C539F"/>
</linearGradient>
<linearGradient id="paint10_linear_5481_12691" x1="20.5552" y1="5.56554" x2="20.5552" y2="7.36933" gradientUnits="userSpaceOnUse">
<stop stop-color="#4773B8"/>
<stop offset="1" stop-color="#2C539F"/>
</linearGradient>
<linearGradient id="paint11_linear_5481_12691" x1="21.4008" y1="6.66357" x2="21.4008" y2="6.67166" gradientUnits="userSpaceOnUse">
<stop stop-color="white"/>
<stop offset="1" stop-color="#2C539F"/>
</linearGradient>
<linearGradient id="paint12_linear_5481_12691" x1="22.7513" y1="5.12072" x2="22.7513" y2="10.5424" gradientUnits="userSpaceOnUse">
<stop stop-color="white"/>
<stop offset="1" stop-color="#2C539F"/>
</linearGradient>
<linearGradient id="paint13_linear_5481_12691" x1="18.158" y1="5.35344" x2="18.158" y2="10.2144" gradientUnits="userSpaceOnUse">
<stop stop-color="white"/>
<stop offset="1" stop-color="#2C539F"/>
</linearGradient>
<linearGradient id="paint14_linear_5481_12691" x1="28.4112" y1="-5.18332" x2="28.4112" y2="92.0134" gradientUnits="userSpaceOnUse">
<stop stop-color="white"/>
<stop offset="1" stop-color="#2C539F"/>
</linearGradient>
<linearGradient id="paint15_linear_5481_12691" x1="29.1638" y1="34.7614" x2="29.1638" y2="35.1769" gradientUnits="userSpaceOnUse">
<stop stop-color="white"/>
<stop offset="1" stop-color="#F7AEA8"/>
</linearGradient>
<linearGradient id="paint16_linear_5481_12691" x1="29.1675" y1="35.037" x2="29.1675" y2="35.1212" gradientUnits="userSpaceOnUse">
<stop stop-color="white"/>
<stop offset="1" stop-color="#F7AEA8"/>
</linearGradient>
<clipPath id="clip0_5481_12691">
<rect width="26.9057" height="36" fill="white" transform="translate(6.49475 2)"/>
</clipPath>
</defs>
</svg>
