<svg width="24" height="24" viewBox="0 0 24 24" fill="none" xmlns="http://www.w3.org/2000/svg">
<path d="M10.2197 21.8687C9.96521 21.8692 9.71314 21.8193 9.47797 21.722C9.2428 21.6248 9.02917 21.482 8.84936 21.3019L3.36346 15.816C3.00593 15.4555 2.80343 14.9695 2.79914 14.4618C2.79486 13.954 2.98913 13.4647 3.34053 13.0982L12.0958 4.07358C12.2768 3.88739 12.4932 3.73927 12.7322 3.63793C12.9713 3.5366 13.2282 3.4841 13.4878 3.48352H16.679C16.7647 3.48352 16.8468 3.51755 16.9074 3.57812C16.968 3.63868 17.002 3.72083 17.002 3.80649C17.002 3.89214 16.968 3.97429 16.9074 4.03486C16.8468 4.09543 16.7647 4.12945 16.679 4.12945H13.4878C13.3147 4.1298 13.1434 4.16479 12.9839 4.23234C12.8245 4.2999 12.6803 4.39867 12.5596 4.52283L3.80496 13.5478C3.57077 13.7921 3.4413 14.1182 3.44413 14.4566C3.44697 14.795 3.58189 15.119 3.82013 15.3593L9.30604 20.8452C9.54852 21.0871 9.87704 21.2229 10.2195 21.2229C10.5621 21.2229 10.8906 21.0871 11.1331 20.8452L20.1761 11.8022C20.2964 11.6825 20.3918 11.5402 20.4568 11.3834C20.5218 11.2266 20.555 11.0585 20.5546 10.8888V5.09835C20.5546 4.84138 20.4525 4.59494 20.2708 4.41324C20.0891 4.23153 19.8427 4.12945 19.5857 4.12945H17.6479C17.5623 4.12945 17.4801 4.09543 17.4196 4.03486C17.359 3.97429 17.325 3.89214 17.325 3.80649C17.325 3.72083 17.359 3.63868 17.4196 3.57812C17.4801 3.51755 17.5623 3.48352 17.6479 3.48352H19.5857C20.0138 3.48403 20.4243 3.65433 20.727 3.95706C21.0297 4.25979 21.2 4.67023 21.2006 5.09835V10.8888C21.2013 11.1434 21.1515 11.3956 21.0541 11.6308C20.9567 11.8661 20.8136 12.0796 20.6331 12.2592L11.5901 21.3022C11.4102 21.4823 11.1966 21.625 10.9614 21.7222C10.7262 21.8194 10.4742 21.8692 10.2197 21.8687Z" fill="#6B7280" stroke="#6B7280" stroke-width="0.645932"/>
<path d="M18.294 8.00499C17.8659 8.00448 17.4555 7.83418 17.1527 7.53145C16.85 7.22872 16.6797 6.81828 16.6792 6.39016C16.6792 6.3045 16.7132 6.22236 16.7738 6.16179C16.8344 6.10122 16.9165 6.06719 17.0022 6.06719C17.0878 6.06719 17.17 6.10122 17.2305 6.16179C17.2911 6.22236 17.3251 6.3045 17.3251 6.39016C17.3251 6.61171 17.401 6.82658 17.5402 6.99895C17.6794 7.17132 17.8735 7.29079 18.09 7.33743C18.3066 7.38408 18.5327 7.35508 18.7305 7.25529C18.9283 7.15549 19.0859 6.99091 19.1771 6.78899C19.2683 6.58707 19.2875 6.36 19.2315 6.14563C19.1756 5.93125 19.0479 5.74252 18.8697 5.61089C18.6915 5.47926 18.4735 5.41268 18.2522 5.42226C18.0308 5.43183 17.8194 5.51697 17.6533 5.66349C17.589 5.72019 17.5049 5.74905 17.4194 5.74372C17.3338 5.73839 17.2539 5.69931 17.1972 5.63507C17.1405 5.57082 17.1117 5.48669 17.117 5.40116C17.1223 5.31564 17.1614 5.23574 17.2257 5.17904C17.4216 5.00622 17.6566 4.88354 17.9104 4.8215C18.1642 4.75947 18.4292 4.75995 18.6828 4.82289C18.9364 4.88584 19.1709 5.00937 19.3662 5.18288C19.5616 5.3564 19.7119 5.57472 19.8043 5.81911C19.8966 6.0635 19.9284 6.32665 19.8967 6.586C19.865 6.84534 19.7709 7.09312 19.6223 7.30807C19.4738 7.52303 19.2754 7.69874 19.044 7.82013C18.8127 7.94151 18.5553 8.00495 18.294 8.00499Z" fill="#6B7280" stroke="#6B7280" stroke-width="0.322966"/>
<path d="M18.4555 6.06727C18.1031 6.06724 17.7564 5.97849 17.4473 5.80921C17.1382 5.63993 16.8767 5.39557 16.6869 5.09865C16.4971 4.80172 16.3851 4.4618 16.3613 4.11021C16.3374 3.75862 16.4024 3.40667 16.5503 3.08682C16.6983 2.76696 16.9243 2.4895 17.2077 2.27999C17.491 2.07048 17.8226 1.93568 18.1717 1.88801C18.5209 1.84034 18.8765 1.88133 19.2056 2.00721C19.5348 2.1331 19.8269 2.33981 20.0552 2.60831C20.0827 2.6406 20.1037 2.67801 20.1168 2.7184C20.1299 2.75879 20.1349 2.80137 20.1316 2.8437C20.1282 2.88603 20.1166 2.92729 20.0973 2.96512C20.078 3.00295 20.0515 3.0366 20.0192 3.06417C19.9869 3.09174 19.9495 3.11268 19.9091 3.12579C19.8687 3.1389 19.8261 3.14392 19.7838 3.14058C19.7414 3.13724 19.7002 3.12559 19.6624 3.1063C19.6245 3.08701 19.5909 3.06046 19.5633 3.02816C19.4054 2.84197 19.2032 2.69854 18.9754 2.6111C18.7475 2.52366 18.5012 2.49502 18.2593 2.52784C18.0175 2.56065 17.7877 2.65386 17.5914 2.79886C17.395 2.94386 17.2384 3.13598 17.1358 3.35749C17.0333 3.579 16.9882 3.82277 17.0047 4.06631C17.0212 4.30984 17.0988 4.54529 17.2303 4.75094C17.3618 4.95658 17.543 5.12579 17.7571 5.24296C17.9712 5.36013 18.2114 5.42148 18.4555 5.42134C18.5412 5.42134 18.6233 5.45537 18.6839 5.51594C18.7445 5.5765 18.7785 5.65865 18.7785 5.74431C18.7785 5.82996 18.7445 5.91211 18.6839 5.97268C18.6233 6.03325 18.5412 6.06727 18.4555 6.06727Z" fill="#6B7280" stroke="#6B7280" stroke-width="0.322966"/>
</svg>
