<svg width="40" height="40" viewBox="0 0 40 40" fill="none" xmlns="http://www.w3.org/2000/svg">
<path d="M21.3989 3.11419L25.9418 12.2856C26.0451 12.5184 26.2076 12.72 26.4132 12.8704C26.6187 13.0208 26.8601 13.1147 27.1132 13.1428L37.1417 14.6285C37.4322 14.6658 37.706 14.785 37.9311 14.9721C38.1562 15.1592 38.3237 15.4065 38.4134 15.6851C38.5034 15.9637 38.512 16.2622 38.4385 16.5456C38.3654 16.829 38.2128 17.0856 37.9988 17.2856L30.7702 24.457C30.586 24.6294 30.4474 24.8452 30.3677 25.0847C30.2877 25.3242 30.2691 25.5799 30.3131 25.8285L32.056 35.9141C32.1065 36.2041 32.0745 36.5021 31.964 36.7746C31.8534 37.0472 31.6685 37.2832 31.4302 37.4561C31.1922 37.6286 30.9102 37.7309 30.6168 37.7515C30.3234 37.7718 30.03 37.7095 29.7702 37.5712L20.7418 32.7998C20.5106 32.6864 20.2564 32.6275 19.9989 32.6275C19.7414 32.6275 19.4872 32.6864 19.256 32.7998L10.2275 37.5712C9.96773 37.7095 9.67444 37.7718 9.38099 37.7515C9.08753 37.7309 8.80567 37.6286 8.56753 37.4561C8.32936 37.2832 8.14444 37.0472 8.03381 36.7746C7.92321 36.5021 7.8913 36.2041 7.94176 35.9141L9.68461 25.7142C9.72879 25.4656 9.7101 25.2099 9.63027 24.9704C9.55044 24.7309 9.41196 24.5151 9.22747 24.3428L1.91319 17.2856C1.6968 17.0802 1.54462 16.8164 1.47509 16.5262C1.40556 16.2361 1.42166 15.932 1.52144 15.6508C1.62123 15.3696 1.80041 15.1233 2.03728 14.9419C2.27416 14.7604 2.55857 14.6516 2.85604 14.6285L12.8846 13.1428C13.1378 13.1147 13.3791 13.0208 13.5847 12.8704C13.7902 12.72 13.9527 12.5184 14.056 12.2856L18.5989 3.11419C18.7226 2.84708 18.9202 2.62092 19.1682 2.46243C19.4163 2.30394 19.7045 2.21973 19.9989 2.21973C20.2933 2.21973 20.5815 2.30394 20.8296 2.46243C21.0776 2.62092 21.2752 2.84708 21.3989 3.11419Z" stroke="#A3A3A3" stroke-width="1.875" stroke-linecap="round" stroke-linejoin="round"/>
</svg>
