<svg width="20" height="20" viewBox="0 0 20 20" fill="none" xmlns="http://www.w3.org/2000/svg">
<g clip-path="url(#clip0_4265_5665)">
<path d="M10.6999 1.55661L12.9714 6.14232C13.023 6.25872 13.1043 6.35954 13.2071 6.43474C13.3098 6.50992 13.4305 6.55688 13.5571 6.57089L18.5713 7.31375C18.7166 7.33241 18.8535 7.39199 18.966 7.48555C19.0786 7.57909 19.1623 7.70275 19.2072 7.84205C19.2522 7.98136 19.2565 8.13059 19.2198 8.27229C19.1832 8.41401 19.1069 8.54234 18.9999 8.64232L15.3856 12.228C15.2935 12.3142 15.2242 12.4221 15.1843 12.5419C15.1443 12.6616 15.135 12.7895 15.157 12.9137L16.0285 17.9566C16.0538 18.1016 16.0378 18.2505 15.9825 18.3868C15.9272 18.5231 15.8348 18.6411 15.7156 18.7276C15.5966 18.8138 15.4556 18.865 15.3089 18.8753C15.1622 18.8854 15.0155 18.8543 14.8856 18.7851L10.3714 16.3994C10.2558 16.3427 10.1287 16.3133 9.99994 16.3133C9.87117 16.3133 9.74411 16.3427 9.62851 16.3994L5.11422 18.7851C4.98435 18.8543 4.83771 18.8854 4.69098 18.8753C4.54425 18.865 4.40332 18.8138 4.28425 18.7276C4.16517 18.6411 4.07271 18.5231 4.0174 18.3868C3.9621 18.2505 3.94614 18.1016 3.97137 17.9566L4.84279 12.8566C4.86488 12.7323 4.85554 12.6045 4.81562 12.4847C4.77571 12.365 4.70647 12.2571 4.61422 12.1709L0.957085 8.64232C0.84889 8.53961 0.7728 8.40771 0.738034 8.26264C0.703268 8.11755 0.71132 7.96549 0.76121 7.82489C0.811101 7.68429 0.900691 7.56118 1.01913 7.47045C1.13757 7.37974 1.27977 7.32529 1.42851 7.31375L6.44279 6.57089C6.56937 6.55688 6.69005 6.50992 6.79282 6.43474C6.8956 6.35954 6.97685 6.25872 7.02851 6.14232L9.29994 1.55661C9.36179 1.42305 9.46057 1.30997 9.58461 1.23073C9.70864 1.15148 9.85275 1.10938 9.99994 1.10938C10.1471 1.10938 10.2913 1.15148 10.4153 1.23073C10.5393 1.30997 10.6381 1.42305 10.6999 1.55661Z" fill="#0A72B9" stroke="#0A72B9" stroke-width="0.9375" stroke-linecap="round" stroke-linejoin="round"/>
</g>
<defs>
<clipPath id="clip0_4265_5665">
<rect width="20" height="20" fill="white"/>
</clipPath>
</defs>
</svg>
