<svg width="32" height="32" viewBox="0 0 32 32" fill="none" xmlns="http://www.w3.org/2000/svg">
<path d="M26.6663 14.6667C26.6663 8.77563 21.8907 4 15.9997 4C10.1086 4 5.33301 8.77563 5.33301 14.6667" stroke="#0A72B9" stroke-width="2" stroke-linecap="round" stroke-linejoin="round"/>
<path d="M2.66699 20.5849V18.0824C2.66699 16.8587 3.49979 15.7921 4.6869 15.4953L7.0063 14.9155C7.51121 14.7893 8.00033 15.1712 8.00033 15.6916V22.9757C8.00033 23.4962 7.51121 23.878 7.0063 23.7518L4.6869 23.172C3.49979 22.8752 2.66699 21.8086 2.66699 20.5849Z" stroke="#0A72B9" stroke-width="2"/>
<path d="M29.3333 20.5849V18.0824C29.3333 16.8587 28.5005 15.7921 27.3134 15.4953L24.994 14.9155C24.4891 14.7893 24 15.1712 24 15.6916V22.9757C24 23.4962 24.4891 23.878 24.994 23.7518L27.3134 23.172C28.5005 22.8752 29.3333 21.8086 29.3333 20.5849Z" stroke="#0A72B9" stroke-width="2"/>
<path d="M26.6663 24V24.6667C26.6663 26.1394 25.4724 27.3333 23.9997 27.3333H19.333" stroke="#0A72B9" stroke-width="2"/>
<path d="M18 29.333H14C12.8954 29.333 12 28.4376 12 27.333C12 26.2284 12.8954 25.333 14 25.333H18C19.1046 25.333 20 26.2284 20 27.333C20 28.4376 19.1046 29.333 18 29.333Z" stroke="#0A72B9" stroke-width="2"/>
</svg>
