<svg width="80" height="80" viewBox="0 0 80 80" fill="none" xmlns="http://www.w3.org/2000/svg">
<path fill-rule="evenodd" clip-rule="evenodd" d="M76.6664 39.9987C76.6664 60.2497 60.2507 76.6654 39.9997 76.6654C19.7487 76.6654 3.33301 60.2497 3.33301 39.9987C3.33301 19.7477 19.7487 3.33203 39.9997 3.33203C60.2507 3.33203 76.6664 19.7477 76.6664 39.9987ZM54.7764 28.8887C55.2913 29.4043 55.5806 30.1033 55.5806 30.832C55.5806 31.5608 55.2913 32.2597 54.7764 32.7754L36.443 51.1087C35.9274 51.6237 35.2284 51.913 34.4997 51.913C33.7709 51.913 33.072 51.6237 32.5563 51.1087L25.223 43.7754C24.9528 43.5236 24.7361 43.22 24.5858 42.8827C24.4355 42.5453 24.3547 42.1812 24.3482 41.812C24.3417 41.4427 24.4096 41.0759 24.5479 40.7335C24.6862 40.3911 24.8921 40.08 25.1532 39.8189C25.4143 39.5578 25.7254 39.3519 26.0678 39.2136C26.4102 39.0753 26.777 39.0074 27.1463 39.0139C27.5155 39.0204 27.8797 39.1012 28.217 39.2515C28.5543 39.4018 28.8579 39.6185 29.1097 39.8887L34.4997 45.2787L42.6947 37.0837L50.8897 28.8887C51.4053 28.3737 52.1043 28.0845 52.833 28.0845C53.5618 28.0845 54.2607 28.3737 54.7764 28.8887Z" fill="#0A72B9"/>
</svg>
