<svg width="40" height="40" viewBox="0 0 40 40" fill="none" xmlns="http://www.w3.org/2000/svg">
<g clip-path="url(#clip0_4522_6640)">
<g clip-path="url(#clip1_4522_6640)">
<path d="M38.5388 22.7126H10.9896V26.2884H38.5388V22.7126Z" fill="#21242A"/>
<path d="M30.3318 12.6089H29.2802V22.9297H30.3318V12.6089Z" fill="#131519"/>
<path d="M1.88459 19.5432H25.3778C26.1832 19.5432 26.8374 20.1974 26.8374 21.0028V24.7971C26.8374 25.6024 26.1832 26.2566 25.3778 26.2566H1.88459C1.07924 26.2566 0.425049 25.6024 0.425049 24.7971V21.0028C0.425049 20.1974 1.07924 19.5432 1.88459 19.5432Z" fill="#21242A"/>
<path d="M36.4649 25.8838C36.4649 27.1256 35.4589 28.1316 34.2171 28.1316C32.9754 28.1316 31.9693 27.1256 31.9693 25.8838C31.9693 24.6421 32.9754 23.636 34.2171 23.636C35.4589 23.636 36.4649 24.6421 36.4649 25.8838Z" fill="#131519"/>
<path opacity="0.2" d="M36.0619 25.8838C36.0619 26.9029 35.2363 27.7294 34.2172 27.7294C33.1981 27.7294 32.3724 26.9029 32.3724 25.8838C32.3724 24.8647 33.1981 24.0391 34.2172 24.0391C35.2363 24.0391 36.0619 24.8655 36.0619 25.8838Z" fill="#A5AFD3"/>
<path d="M35.2956 25.8846C35.2956 26.4802 34.8129 26.963 34.2172 26.963C33.6215 26.963 33.1388 26.4802 33.1388 25.8846C33.1388 25.2889 33.6215 24.8062 34.2172 24.8062C34.8129 24.8062 35.2956 25.2889 35.2956 25.8846Z" fill="#4C7E92"/>
<path d="M33.5744 26.0333C33.5744 26.0975 33.5224 26.1503 33.4574 26.1503C33.3924 26.1503 33.3404 26.0983 33.3404 26.0333C33.3404 25.9683 33.3924 25.9163 33.4574 25.9163C33.5224 25.9163 33.5744 25.9683 33.5744 26.0333Z" fill="#9AC9DF"/>
<path d="M33.9507 26.5533C33.9507 26.6175 33.8978 26.6703 33.8336 26.6703C33.7694 26.6703 33.7166 26.6175 33.7166 26.5533C33.7166 26.4891 33.7694 26.4363 33.8336 26.4363C33.8978 26.4363 33.9507 26.4891 33.9507 26.5533Z" fill="#9AC9DF"/>
<path d="M34.6658 26.5794C34.6658 26.6444 34.6138 26.6964 34.5488 26.6964C34.4838 26.6964 34.4318 26.6436 34.4318 26.5794C34.4318 26.5152 34.4838 26.4624 34.5488 26.4624C34.6138 26.4624 34.6658 26.5144 34.6658 26.5794Z" fill="#9AC9DF"/>
<path d="M35.1201 26.0592C35.1201 26.1242 35.0681 26.1762 35.0031 26.1762C34.9381 26.1762 34.886 26.1242 34.886 26.0592C34.886 25.9941 34.9381 25.9421 35.0031 25.9421C35.0681 25.9421 35.1201 25.9941 35.1201 26.0592Z" fill="#9AC9DF"/>
<path d="M34.9649 25.4229C34.9649 25.4871 34.9129 25.54 34.8479 25.54C34.7828 25.54 34.7308 25.4879 34.7308 25.4229C34.7308 25.3579 34.7828 25.3059 34.8479 25.3059C34.9129 25.3059 34.9649 25.3579 34.9649 25.4229Z" fill="#9AC9DF"/>
<path d="M34.4188 25.1499C34.4188 25.2149 34.3668 25.2669 34.3018 25.2669C34.2368 25.2669 34.1848 25.2149 34.1848 25.1499C34.1848 25.0849 34.2368 25.0337 34.3018 25.0337C34.3668 25.0337 34.4188 25.0857 34.4188 25.1499Z" fill="#9AC9DF"/>
<path d="M33.7694 25.3189C33.7694 25.3839 33.7174 25.4359 33.6524 25.4359C33.5874 25.4359 33.5354 25.3839 33.5354 25.3189C33.5354 25.2539 33.5874 25.2019 33.6524 25.2019C33.7174 25.2019 33.7694 25.2539 33.7694 25.3189Z" fill="#9AC9DF"/>
<path d="M34.6008 25.8389C34.6008 26.0397 34.4374 26.203 34.2367 26.203C34.036 26.203 33.8726 26.0405 33.8726 25.8389C33.8726 25.6374 34.036 25.4749 34.2367 25.4749C34.4374 25.4749 34.6008 25.6374 34.6008 25.8389Z" fill="#131519"/>
<g style="mix-blend-mode:multiply" opacity="0.3">
<path d="M32.7665 25.6676C33.0225 25.5596 33.3134 25.497 33.5922 25.51C33.9498 25.527 34.2374 25.679 34.5739 25.7782C35.172 25.9553 35.8693 25.7448 36.4219 25.4474C36.2187 24.4153 35.3085 23.636 34.2171 23.636C32.9754 23.636 31.9693 24.6421 31.9693 25.8838C31.9693 25.9984 31.9782 26.1114 31.9945 26.2211C32.1985 25.9797 32.4707 25.7928 32.7665 25.6668V25.6676Z" fill="#2F3C4F"/>
</g>
<path d="M6.40543 25.8838C6.40543 27.1256 5.39855 28.1316 4.15761 28.1316C2.91668 28.1316 1.90979 27.1256 1.90979 25.8838C1.90979 24.6421 2.91586 23.636 4.15761 23.636C5.39936 23.636 6.40543 24.6421 6.40543 25.8838Z" fill="#131519"/>
<path opacity="0.2" d="M6.00235 25.8838C6.00235 26.9029 5.17668 27.7294 4.15761 27.7294C3.13853 27.7294 2.31287 26.9029 2.31287 25.8838C2.31287 24.8647 3.13853 24.0391 4.15761 24.0391C5.17668 24.0391 6.00235 24.8655 6.00235 25.8838Z" fill="#A5AFD3"/>
<path d="M5.23597 25.8846C5.23597 26.4802 4.75324 26.963 4.15756 26.963C3.56188 26.963 3.07916 26.4802 3.07916 25.8846C3.07916 25.2889 3.56188 24.8062 4.15756 24.8062C4.75324 24.8062 5.23597 25.2889 5.23597 25.8846Z" fill="#4C7E92"/>
<path d="M3.51395 26.0333C3.51395 26.0975 3.46194 26.1503 3.39693 26.1503C3.33192 26.1503 3.27991 26.0983 3.27991 26.0333C3.27991 25.9683 3.33192 25.9163 3.39693 25.9163C3.46194 25.9163 3.51395 25.9683 3.51395 26.0333Z" fill="#9AC9DF"/>
<path d="M3.89103 26.5533C3.89103 26.6175 3.83821 26.6703 3.77401 26.6703C3.70981 26.6703 3.65698 26.6175 3.65698 26.5533C3.65698 26.4891 3.70981 26.4363 3.77401 26.4363C3.83821 26.4363 3.89103 26.4891 3.89103 26.5533Z" fill="#9AC9DF"/>
<path d="M4.60538 26.5794C4.60538 26.6444 4.55337 26.6964 4.48836 26.6964C4.42335 26.6964 4.37134 26.6436 4.37134 26.5794C4.37134 26.5152 4.42335 26.4624 4.48836 26.4624C4.55337 26.4624 4.60538 26.5144 4.60538 26.5794Z" fill="#9AC9DF"/>
<path d="M5.06046 26.0592C5.06046 26.1242 5.00845 26.1762 4.94344 26.1762C4.87843 26.1762 4.82642 26.1242 4.82642 26.0592C4.82642 25.9941 4.87843 25.9421 4.94344 25.9421C5.00845 25.9421 5.06046 25.9941 5.06046 26.0592Z" fill="#9AC9DF"/>
<path d="M4.9044 25.4229C4.9044 25.4871 4.85239 25.54 4.78737 25.54C4.72236 25.54 4.67035 25.4879 4.67035 25.4229C4.67035 25.3579 4.72236 25.3059 4.78737 25.3059C4.85239 25.3059 4.9044 25.3579 4.9044 25.4229Z" fill="#9AC9DF"/>
<path d="M4.35831 25.1499C4.35831 25.2149 4.3063 25.2669 4.24129 25.2669C4.17628 25.2669 4.12427 25.2149 4.12427 25.1499C4.12427 25.0849 4.17628 25.0337 4.24129 25.0337C4.3063 25.0337 4.35831 25.0857 4.35831 25.1499Z" fill="#9AC9DF"/>
<path d="M3.70902 25.3189C3.70902 25.3839 3.65701 25.4359 3.592 25.4359C3.52699 25.4359 3.47498 25.3839 3.47498 25.3189C3.47498 25.2539 3.52699 25.2019 3.592 25.2019C3.65701 25.2019 3.70902 25.2539 3.70902 25.3189Z" fill="#9AC9DF"/>
<path d="M4.54034 25.8389C4.54034 26.0397 4.37781 26.203 4.17627 26.203C3.97473 26.203 3.81219 26.0405 3.81219 25.8389C3.81219 25.6374 3.97554 25.4749 4.17627 25.4749C4.37699 25.4749 4.54034 25.6374 4.54034 25.8389Z" fill="#131519"/>
<g style="mix-blend-mode:multiply" opacity="0.3">
<path d="M2.70701 25.6676C2.963 25.5596 3.25393 25.497 3.53267 25.51C3.89025 25.527 4.17793 25.679 4.51437 25.7782C5.11249 25.9553 5.80975 25.7448 6.36317 25.4474C6.16001 24.4153 5.24983 23.636 4.15761 23.636C2.91586 23.636 1.90979 24.6421 1.90979 25.8838C1.90979 25.9984 1.91873 26.1114 1.93498 26.2211C2.13896 25.9797 2.4112 25.7928 2.70701 25.6668V25.6676Z" fill="#2F3C4F"/>
</g>
<path d="M10.7645 25.8838C10.7645 27.1256 9.75843 28.1316 8.51668 28.1316C7.27493 28.1316 6.26886 27.1256 6.26886 25.8838C6.26886 24.6421 7.27493 23.636 8.51668 23.636C9.75843 23.636 10.7645 24.6421 10.7645 25.8838Z" fill="#131519"/>
<path opacity="0.2" d="M10.3614 25.8838C10.3614 26.9029 9.53569 27.7294 8.51662 27.7294C7.49754 27.7294 6.67188 26.9029 6.67188 25.8838C6.67188 24.8647 7.49754 24.0391 8.51662 24.0391C9.53569 24.0391 10.3614 24.8655 10.3614 25.8838Z" fill="#A5AFD3"/>
<path d="M9.59504 25.8846C9.59504 26.4802 9.11231 26.963 8.51663 26.963C7.92095 26.963 7.43823 26.4802 7.43823 25.8846C7.43823 25.2889 7.92095 24.8062 8.51663 24.8062C9.11231 24.8062 9.59504 25.2889 9.59504 25.8846Z" fill="#4C7E92"/>
<path d="M7.87302 26.0333C7.87302 26.0975 7.82101 26.1503 7.756 26.1503C7.69099 26.1503 7.63898 26.0983 7.63898 26.0333C7.63898 25.9683 7.69099 25.9163 7.756 25.9163C7.82101 25.9163 7.87302 25.9683 7.87302 26.0333Z" fill="#9AC9DF"/>
<path d="M8.2501 26.5533C8.2501 26.6175 8.19728 26.6703 8.13308 26.6703C8.06888 26.6703 8.01605 26.6175 8.01605 26.5533C8.01605 26.4891 8.06888 26.4363 8.13308 26.4363C8.19728 26.4363 8.2501 26.4891 8.2501 26.5533Z" fill="#9AC9DF"/>
<path d="M8.96525 26.5794C8.96525 26.6444 8.91324 26.6964 8.84822 26.6964C8.78321 26.6964 8.7312 26.6436 8.7312 26.5794C8.7312 26.5152 8.78321 26.4624 8.84822 26.4624C8.91324 26.4624 8.96525 26.5144 8.96525 26.5794Z" fill="#9AC9DF"/>
<path d="M9.41953 26.0592C9.41953 26.1242 9.36752 26.1762 9.30251 26.1762C9.2375 26.1762 9.18549 26.1242 9.18549 26.0592C9.18549 25.9941 9.2375 25.9421 9.30251 25.9421C9.36752 25.9421 9.41953 25.9941 9.41953 26.0592Z" fill="#9AC9DF"/>
<path d="M9.26347 25.4229C9.26347 25.4871 9.21146 25.54 9.14644 25.54C9.08143 25.54 9.02942 25.4879 9.02942 25.4229C9.02942 25.3579 9.08143 25.3059 9.14644 25.3059C9.21146 25.3059 9.26347 25.3579 9.26347 25.4229Z" fill="#9AC9DF"/>
<path d="M8.71818 25.1499C8.71818 25.2149 8.66617 25.2669 8.60115 25.2669C8.53614 25.2669 8.48413 25.2149 8.48413 25.1499C8.48413 25.0849 8.53614 25.0337 8.60115 25.0337C8.66617 25.0337 8.71818 25.0857 8.71818 25.1499Z" fill="#9AC9DF"/>
<path d="M8.06803 25.3189C8.06803 25.3839 8.01521 25.4359 7.95101 25.4359C7.88681 25.4359 7.83398 25.3839 7.83398 25.3189C7.83398 25.2539 7.88599 25.2019 7.95101 25.2019C8.01602 25.2019 8.06803 25.2539 8.06803 25.3189Z" fill="#9AC9DF"/>
<path d="M8.9002 25.8389C8.9002 26.0397 8.73767 26.203 8.53613 26.203C8.33459 26.203 8.17206 26.0405 8.17206 25.8389C8.17206 25.6374 8.3354 25.4749 8.53613 25.4749C8.73686 25.4749 8.9002 25.6374 8.9002 25.8389Z" fill="#131519"/>
<g style="mix-blend-mode:multiply" opacity="0.3">
<path d="M7.06608 25.6676C7.32207 25.5596 7.613 25.497 7.89174 25.51C8.24932 25.527 8.537 25.679 8.87344 25.7782C9.47156 25.9553 10.1688 25.7448 10.7222 25.4474C10.5191 24.4153 9.6089 23.636 8.51668 23.636C7.27493 23.636 6.26886 24.6421 6.26886 25.8838C6.26886 25.9984 6.2778 26.1114 6.29405 26.2211C6.49803 25.9797 6.77027 25.7928 7.06608 25.6668V25.6676Z" fill="#2F3C4F"/>
</g>
<path d="M24.969 25.8838C24.969 27.1256 23.963 28.1316 22.7212 28.1316C21.4795 28.1316 20.4734 27.1256 20.4734 25.8838C20.4734 24.6421 21.4795 23.636 22.7212 23.636C23.963 23.636 24.969 24.6421 24.969 25.8838Z" fill="#131519"/>
<path opacity="0.2" d="M24.5668 25.8838C24.5668 26.9029 23.7403 27.7294 22.7212 27.7294C21.7021 27.7294 20.8765 26.9029 20.8765 25.8838C20.8765 24.8647 21.7021 24.0391 22.7212 24.0391C23.7403 24.0391 24.5668 24.8655 24.5668 25.8838Z" fill="#A5AFD3"/>
<path d="M23.7996 25.8846C23.7996 26.4802 23.3169 26.963 22.7212 26.963C22.1255 26.963 21.6428 26.4802 21.6428 25.8846C21.6428 25.2889 22.1255 24.8062 22.7212 24.8062C23.3169 24.8062 23.7996 25.2889 23.7996 25.8846Z" fill="#4C7E92"/>
<path d="M22.0784 26.0333C22.0784 26.0975 22.0264 26.1503 21.9614 26.1503C21.8964 26.1503 21.8444 26.0983 21.8444 26.0333C21.8444 25.9683 21.8964 25.9163 21.9614 25.9163C22.0264 25.9163 22.0784 25.9683 22.0784 26.0333Z" fill="#9AC9DF"/>
<path d="M22.4546 26.5533C22.4546 26.6175 22.4026 26.6703 22.3376 26.6703C22.2726 26.6703 22.2206 26.6175 22.2206 26.5533C22.2206 26.4891 22.2734 26.4363 22.3376 26.4363C22.4018 26.4363 22.4546 26.4891 22.4546 26.5533Z" fill="#9AC9DF"/>
<path d="M23.1698 26.5794C23.1698 26.6444 23.1178 26.6964 23.0528 26.6964C22.9877 26.6964 22.9357 26.6436 22.9357 26.5794C22.9357 26.5152 22.9877 26.4624 23.0528 26.4624C23.1178 26.4624 23.1698 26.5144 23.1698 26.5794Z" fill="#9AC9DF"/>
<path d="M23.6241 26.0592C23.6241 26.1242 23.5721 26.1762 23.507 26.1762C23.442 26.1762 23.39 26.1242 23.39 26.0592C23.39 25.9941 23.442 25.9421 23.507 25.9421C23.5721 25.9421 23.6241 25.9941 23.6241 26.0592Z" fill="#9AC9DF"/>
<path d="M23.4688 25.4229C23.4688 25.4871 23.4168 25.54 23.3518 25.54C23.2868 25.54 23.2348 25.4879 23.2348 25.4229C23.2348 25.3579 23.2868 25.3059 23.3518 25.3059C23.4168 25.3059 23.4688 25.3579 23.4688 25.4229Z" fill="#9AC9DF"/>
<path d="M22.9228 25.1499C22.9228 25.2149 22.8708 25.2669 22.8057 25.2669C22.7407 25.2669 22.6887 25.2149 22.6887 25.1499C22.6887 25.0849 22.7407 25.0337 22.8057 25.0337C22.8708 25.0337 22.9228 25.0857 22.9228 25.1499Z" fill="#9AC9DF"/>
<path d="M22.2734 25.3189C22.2734 25.3839 22.2206 25.4359 22.1564 25.4359C22.0922 25.4359 22.0394 25.3839 22.0394 25.3189C22.0394 25.2539 22.0914 25.2019 22.1564 25.2019C22.2214 25.2019 22.2734 25.2539 22.2734 25.3189Z" fill="#9AC9DF"/>
<path d="M23.1048 25.8389C23.1048 26.0397 22.9414 26.203 22.7407 26.203C22.54 26.203 22.3766 26.0405 22.3766 25.8389C22.3766 25.6374 22.54 25.4749 22.7407 25.4749C22.9414 25.4749 23.1048 25.6374 23.1048 25.8389Z" fill="#131519"/>
<g style="mix-blend-mode:multiply" opacity="0.3">
<path d="M21.2706 25.6676C21.5258 25.5596 21.8175 25.497 22.0963 25.51C22.4538 25.527 22.7415 25.679 23.078 25.7782C23.6761 25.9553 24.3734 25.7448 24.9268 25.4474C24.7236 24.4153 23.8134 23.636 22.7212 23.636C21.4795 23.636 20.4734 24.6421 20.4734 25.8838C20.4734 25.9984 20.4823 26.1114 20.4986 26.2211C20.7026 25.9797 20.9748 25.7928 21.2706 25.6668V25.6676Z" fill="#2F3C4F"/>
</g>
<path d="M29.329 25.8838C29.329 27.1256 28.3229 28.1316 27.0811 28.1316C25.8394 28.1316 24.8333 27.1256 24.8333 25.8838C24.8333 24.6421 25.8394 23.636 27.0811 23.636C28.3229 23.636 29.329 24.6421 29.329 25.8838Z" fill="#131519"/>
<path opacity="0.2" d="M28.9258 25.8838C28.9258 26.9029 28.1001 27.7294 27.0811 27.7294C26.062 27.7294 25.2363 26.9029 25.2363 25.8838C25.2363 24.8647 26.062 24.0391 27.0811 24.0391C28.1001 24.0391 28.9258 24.8655 28.9258 25.8838Z" fill="#A5AFD3"/>
<path d="M28.1595 25.8846C28.1595 26.4802 27.6768 26.963 27.0811 26.963C26.4854 26.963 26.0027 26.4802 26.0027 25.8846C26.0027 25.2889 26.4854 24.8062 27.0811 24.8062C27.6768 24.8062 28.1595 25.2889 28.1595 25.8846Z" fill="#4C7E92"/>
<path d="M26.3204 26.1503C26.385 26.1503 26.4374 26.0979 26.4374 26.0333C26.4374 25.9687 26.385 25.9163 26.3204 25.9163C26.2558 25.9163 26.2034 25.9687 26.2034 26.0333C26.2034 26.0979 26.2558 26.1503 26.3204 26.1503Z" fill="#9AC9DF"/>
<path d="M26.8145 26.5533C26.8145 26.6175 26.7617 26.6703 26.6975 26.6703C26.6333 26.6703 26.5804 26.6175 26.5804 26.5533C26.5804 26.4891 26.6333 26.4363 26.6975 26.4363C26.7617 26.4363 26.8145 26.4891 26.8145 26.5533Z" fill="#9AC9DF"/>
<path d="M27.5288 26.5794C27.5288 26.6444 27.4768 26.6964 27.4118 26.6964C27.3467 26.6964 27.2947 26.6436 27.2947 26.5794C27.2947 26.5152 27.3467 26.4624 27.4118 26.4624C27.4768 26.4624 27.5288 26.5144 27.5288 26.5794Z" fill="#9AC9DF"/>
<path d="M27.9839 26.0592C27.9839 26.1242 27.9319 26.1762 27.8668 26.1762C27.8018 26.1762 27.7498 26.1242 27.7498 26.0592C27.7498 25.9941 27.8018 25.9421 27.8668 25.9421C27.9319 25.9421 27.9839 25.9941 27.9839 26.0592Z" fill="#9AC9DF"/>
<path d="M27.8279 25.4229C27.8279 25.4871 27.7758 25.54 27.7108 25.54C27.6458 25.54 27.5938 25.4879 27.5938 25.4229C27.5938 25.3579 27.6458 25.3059 27.7108 25.3059C27.7758 25.3059 27.8279 25.3579 27.8279 25.4229Z" fill="#9AC9DF"/>
<path d="M27.2817 25.1499C27.2817 25.2149 27.2297 25.2669 27.1647 25.2669C27.0997 25.2669 27.0477 25.2149 27.0477 25.1499C27.0477 25.0849 27.0997 25.0337 27.1647 25.0337C27.2297 25.0337 27.2817 25.0857 27.2817 25.1499Z" fill="#9AC9DF"/>
<path d="M26.6324 25.3189C26.6324 25.3839 26.5804 25.4359 26.5154 25.4359C26.4504 25.4359 26.3984 25.3839 26.3984 25.3189C26.3984 25.2539 26.4504 25.2019 26.5154 25.2019C26.5804 25.2019 26.6324 25.2539 26.6324 25.3189Z" fill="#9AC9DF"/>
<path d="M27.4639 25.8389C27.4639 26.0397 27.3005 26.203 27.0998 26.203C26.8991 26.203 26.7357 26.0405 26.7357 25.8389C26.7357 25.6374 26.8991 25.4749 27.0998 25.4749C27.3005 25.4749 27.4639 25.6374 27.4639 25.8389Z" fill="#131519"/>
<g style="mix-blend-mode:multiply" opacity="0.3">
<path d="M25.6305 25.6676C25.8865 25.5596 26.1775 25.497 26.4562 25.51C26.8138 25.527 27.1015 25.679 27.4379 25.7782C28.036 25.9553 28.7333 25.7448 29.2859 25.4474C29.0827 24.4153 28.1725 23.636 27.0811 23.636C25.8394 23.636 24.8333 24.6421 24.8333 25.8838C24.8333 25.9984 24.8423 26.1114 24.8585 26.2211C25.0625 25.9797 25.3347 25.7928 25.6305 25.6668V25.6676Z" fill="#2F3C4F"/>
</g>
<path d="M29.4638 11.5117H0V24.9133H29.4638V11.5117Z" fill="white"/>
<path d="M29.0218 12.0562H0.442932V24.3688H29.0218V12.0562Z" fill="#E7EDF0"/>
<g style="mix-blend-mode:multiply" opacity="0.3">
<path d="M28.1083 23.7603C27.1096 23.1809 26.0303 22.6933 24.9519 22.2796C22.6147 21.3832 20.1353 20.8753 17.6339 20.7697C15.1537 20.6649 12.6873 21.0598 10.2095 20.9728C9.0124 20.9306 7.80641 20.7737 6.67519 20.3658C5.69593 20.0123 4.75406 19.5645 3.88207 18.9932C2.56637 18.131 1.43759 17.0412 0.442078 15.8352V24.3698H29.0031C28.7211 24.1479 28.4236 23.9439 28.1083 23.7611V23.7603Z" fill="#E7EDF0"/>
</g>
<path d="M1.91223 12.0701V24.3697" stroke="#6B9BB1" stroke-width="0.0406331" stroke-miterlimit="10"/>
<path d="M4.73541 12.0701V24.3697" stroke="#6B9BB1" stroke-width="0.0406331" stroke-miterlimit="10"/>
<path d="M7.55774 12.0701V24.3697" stroke="#6B9BB1" stroke-width="0.0406331" stroke-miterlimit="10"/>
<path d="M10.3801 12.0701V24.3697" stroke="#6B9BB1" stroke-width="0.0406331" stroke-miterlimit="10"/>
<path d="M13.2025 12.0701V24.3697" stroke="#6B9BB1" stroke-width="0.0406331" stroke-miterlimit="10"/>
<path d="M16.0257 12.0701V24.3697" stroke="#6B9BB1" stroke-width="0.0406331" stroke-miterlimit="10"/>
<path d="M18.8481 12.0701V24.3697" stroke="#6B9BB1" stroke-width="0.0406331" stroke-miterlimit="10"/>
<path d="M21.6705 12.0701V24.3697" stroke="#6B9BB1" stroke-width="0.0406331" stroke-miterlimit="10"/>
<path d="M24.4928 12.0701V24.3697" stroke="#6B9BB1" stroke-width="0.0406331" stroke-miterlimit="10"/>
<path d="M27.316 12.0701V24.3697" stroke="#6B9BB1" stroke-width="0.0406331" stroke-miterlimit="10"/>
<path d="M1.34009 12.0701V24.3697" stroke="#9AC9DF" stroke-width="0.0406331" stroke-miterlimit="10"/>
<path d="M4.15106 12.0701V24.3697" stroke="#9AC9DF" stroke-width="0.0406331" stroke-miterlimit="10"/>
<path d="M6.9621 12.0701V24.3697" stroke="#9AC9DF" stroke-width="0.0406331" stroke-miterlimit="10"/>
<path d="M9.77307 12.0701V24.3697" stroke="#9AC9DF" stroke-width="0.0406331" stroke-miterlimit="10"/>
<path d="M12.584 12.0701V24.3697" stroke="#9AC9DF" stroke-width="0.0406331" stroke-miterlimit="10"/>
<path d="M15.3951 12.0701V24.3697" stroke="#9AC9DF" stroke-width="0.0406331" stroke-miterlimit="10"/>
<path d="M18.2061 12.0701V24.3697" stroke="#9AC9DF" stroke-width="0.0406331" stroke-miterlimit="10"/>
<path d="M21.0171 12.0701V24.3697" stroke="#9AC9DF" stroke-width="0.0406331" stroke-miterlimit="10"/>
<path d="M23.8281 12.0701V24.3697" stroke="#9AC9DF" stroke-width="0.0406331" stroke-miterlimit="10"/>
<path d="M26.639 12.0701V24.3697" stroke="#9AC9DF" stroke-width="0.0406331" stroke-miterlimit="10"/>
<path d="M29.0217 23.9944H0.325867V24.3568H29.0217V23.9944Z" fill="#9AC9DF"/>
<path d="M16.7912 23.9944H15.4031V24.3568H16.7912V23.9944Z" fill="#FC4125"/>
<path d="M12.493 23.9944H11.105V24.3568H12.493V23.9944Z" fill="#FC4125"/>
<path d="M14.6425 23.9944H13.2545V24.3568H14.6425V23.9944Z" fill="#FC4125"/>
<path d="M10.3443 23.9944H8.9563V24.3568H10.3443V23.9944Z" fill="#FC4125"/>
<path d="M3.89588 23.9944H2.50867V24.3568H3.89588V23.9944Z" fill="#FC4125"/>
<path d="M6.04537 23.9944H4.65735V24.3568H6.04537V23.9944Z" fill="#FC4125"/>
<path d="M8.19404 23.9944H6.80682V24.3568H8.19404V23.9944Z" fill="#FC4125"/>
<path d="M1.74721 23.9944H0.325867V24.3568H1.74721V23.9944Z" fill="#FC4125"/>
<path d="M27.537 23.9944H26.1498V24.3568H27.537V23.9944Z" fill="#FC4125"/>
<path d="M29.0217 23.9944H28.2985V24.3568H29.0217V23.9944Z" fill="#FC4125"/>
<path d="M23.2388 23.9944H21.8508V24.3568H23.2388V23.9944Z" fill="#FC4125"/>
<path d="M21.0893 23.9944H19.7013V24.3568H21.0893V23.9944Z" fill="#FC4125"/>
<path d="M25.3883 23.9944H24.0003V24.3568H25.3883V23.9944Z" fill="#FC4125"/>
<path d="M18.9398 23.9944H17.5526V24.3568H18.9398V23.9944Z" fill="#FC4125"/>
<path d="M39.8391 22.1033H30.2367V20.2699L39.8098 20.1943L39.8391 22.1033Z" fill="#21242A"/>
<path d="M38.7405 21.3921H30.2482V24.2015H35.8149C36.5105 24.2015 37.0745 24.7752 37.0745 25.4823V26.325H38.7405C39.4361 26.325 40.0001 25.7513 40.0001 25.0442V22.6729C40.0001 21.9651 39.7449 21.3629 38.7405 21.3921Z" fill="#046FFC"/>
<path d="M38.617 26.3249C38.6519 26.0064 38.6853 25.687 38.6991 25.3684C38.7259 24.7597 38.6308 24.1616 38.2229 23.6854C37.8929 23.3002 37.4533 23.0288 36.9795 22.8541C35.8515 22.438 34.5886 22.3616 33.3997 22.2868C32.8146 22.2502 32.2295 22.2267 31.6444 22.1925C31.1616 22.1649 30.6667 22.1064 30.249 21.8472V24.2014H35.8158C36.5114 24.2014 37.0754 24.7752 37.0754 25.4822V26.3249H38.6178H38.617Z" fill="#04329C"/>
<path d="M38.3358 21.3589V26.2885" stroke="#21242A" stroke-width="0.0406331" stroke-miterlimit="10"/>
<path d="M40.0001 24.3787H39.189V24.8541H40.0001V24.3787Z" fill="#FF5A19"/>
<path d="M40.0001 22.7939H39.2687V23.6472H40.0001V22.7939Z" fill="#9AC9DF"/>
<path d="M39.9992 22.8955H39.3597V23.566H39.9992V22.8955Z" fill="#D3F1FD"/>
<path d="M30.2498 23.3628H35.4589" stroke="#21242A" stroke-width="0.0406331" stroke-miterlimit="10"/>
<path d="M36.239 13.5295C36.0456 12.9745 35.8067 12.4072 35.5792 12.1911C35.4386 12.0594 35.4142 11.9221 34.6649 11.8433C33.3882 11.714 31.806 11.6173 29.5045 11.6417V13.5303H36.239V13.5295Z" fill="#04329C"/>
<path d="M30.2496 21.1555H39.4465C39.4465 21.1555 39.8033 21.1742 39.8594 21.1149C39.9227 21.0483 39.9707 20.9442 39.9471 20.7898C39.6928 19.1109 39.1978 15.7603 38.6761 14.3527C38.6591 14.3081 38.6209 14.2479 38.6046 14.2065C38.4526 13.8359 38.2795 13.3402 37.2621 13.1297C35.5279 12.7867 33.3776 12.5308 30.2496 12.5941V21.1547V21.1555Z" fill="#046FFC"/>
<path d="M39.7985 19.6652C39.6855 19.6124 32.4032 21.128 32.0985 17.6742C32.053 17.159 32.0457 13.0754 32.0172 12.5951C31.2306 12.5618 31.2021 12.5756 30.2497 12.5951V21.1557H39.4466C39.4466 21.1557 39.8033 21.1744 39.8594 21.115C39.9228 21.0484 39.9707 20.9444 39.9472 20.79C39.8919 20.4259 39.8724 20.1496 39.7985 19.6661V19.6652Z" fill="#04329C"/>
<path d="M34.0334 18.4056C34.0334 18.4585 33.9911 18.5007 33.9383 18.5007H33.198C33.1452 18.5007 33.1029 18.4585 33.1029 18.4056C33.1029 18.3528 33.146 18.3105 33.198 18.3105H33.9383C33.9911 18.3105 34.0334 18.3528 34.0334 18.4056Z" fill="#21242A"/>
<path d="M36.8599 14.6674L33.0086 14.4902C33.0086 14.4902 32.621 14.4886 32.5373 14.899C32.4536 15.3094 32.53 21.1939 32.53 21.1939" stroke="#21242A" stroke-width="0.0406331" stroke-miterlimit="10"/>
<path d="M37.1711 18.5681L37.1979 21.1686" stroke="#21242A" stroke-width="0.0406331" stroke-miterlimit="10"/>
<path d="M37.2011 17.6489C37.0532 16.8737 36.7176 15.9822 36.4527 15.4418C36.4145 15.3637 36.3405 15.2158 36.1 15.1256C36.0325 15.1004 35.9521 15.0793 35.8554 15.0655C35.7879 15.0566 35.7132 15.0509 35.6295 15.0492H35.6262C35.4929 15.0419 35.3515 15.0346 35.2069 15.0281C34.4365 14.9915 33.5515 14.9566 33.0103 14.9387V17.9285C34.0838 17.9285 35.0728 17.9285 36.655 17.922C36.7014 17.922 36.7444 17.9285 36.7843 17.9285C36.9541 17.9285 37.0516 17.8903 37.1036 17.8578C37.1849 17.8082 37.2182 17.7375 37.2011 17.6498V17.6489Z" fill="#21242A"/>
<path d="M36.9581 17.5573C36.824 16.8543 36.5201 16.0465 36.2795 15.5573C36.2446 15.4866 36.1771 15.3525 35.9602 15.2704C35.8992 15.2477 35.8261 15.2282 35.7383 15.216C35.6774 15.2079 35.6099 15.2022 35.5335 15.2014H35.5303C35.4092 15.194 35.2816 15.1884 35.1499 15.1819C34.4519 15.1485 33.6506 15.1168 33.1597 15.1006V17.8092C34.1325 17.8092 35.0288 17.8092 36.4624 17.8027C36.5046 17.8027 36.5428 17.8092 36.5794 17.8092C36.733 17.8092 36.8216 17.7751 36.8687 17.745C36.9427 17.7003 36.9727 17.6361 36.9573 17.5564L36.9581 17.5573Z" fill="#D3F1FD"/>
<path opacity="0.4" d="M33.8985 16.1228C34.126 15.8083 34.3446 15.4921 34.5064 15.1541C34.0001 15.1321 33.5043 15.1134 33.1606 15.1021V17.4596C33.306 16.972 33.5937 16.5437 33.8985 16.1236V16.1228Z" fill="#9AC9DF"/>
<path opacity="0.4" d="M36.3251 15.653C36.3097 15.6197 36.2942 15.588 36.2796 15.5571C36.2447 15.4864 36.1772 15.3523 35.9602 15.2703C35.8993 15.2475 35.8261 15.228 35.7384 15.2158C35.7384 15.2158 35.7367 15.2158 35.7359 15.2158C35.2451 16.0748 34.3893 16.8111 34.2886 17.809C34.6518 17.809 35.037 17.8082 35.471 17.8066C35.5937 17.0492 35.9456 16.3316 36.3251 15.6522V15.653Z" fill="#9AC9DF"/>
<path opacity="0.4" d="M36.8119 16.9575C36.6551 17.2322 36.5007 17.5077 36.3975 17.8043C36.4194 17.8043 36.4405 17.8043 36.4625 17.8043C36.5047 17.8043 36.5429 17.8108 36.5795 17.8108C36.7331 17.8108 36.8217 17.7767 36.8688 17.7466C36.9428 17.7019 36.9728 17.6377 36.9574 17.5581C36.92 17.363 36.8696 17.1599 36.8119 16.9583V16.9575Z" fill="#9AC9DF"/>
<path d="M37.8392 16.53H37.3613V18.4983H37.8392V16.53Z" fill="#313B4C"/>
<path d="M37.8392 16.53H36.6925V16.6243H37.8392V16.53Z" fill="#21242A"/>
<path d="M37.8392 18.4519H36.6925V18.5462H37.8392V18.4519Z" fill="#21242A"/>
<path d="M36.907 18.2146V16.4592C36.907 16.1984 36.6957 15.9871 36.4348 15.9871H36.3755C36.1147 15.9871 35.9042 16.1984 35.9042 16.4592V18.2146C35.9042 18.4754 36.1155 18.6867 36.3755 18.6867H36.4348C36.6957 18.6867 36.907 18.4754 36.907 18.2146Z" fill="#131519"/>
<path d="M36.343 15.9929C36.3845 16.0327 36.4194 16.0791 36.4414 16.1327C36.4722 16.2075 36.4812 16.2887 36.4861 16.3684C36.4918 16.4553 36.4926 16.5439 36.4901 16.6309C36.4869 16.7251 36.4674 16.8178 36.4552 16.9112C36.4446 16.9892 36.4332 17.0673 36.4211 17.1453C36.4146 17.1835 36.4089 17.2217 36.404 17.2607C36.3983 17.3013 36.3983 17.3411 36.395 17.3818C36.3885 17.4614 36.3747 17.5402 36.3723 17.6199C36.3699 17.7019 36.3723 17.784 36.3723 17.8661C36.3723 18.0286 36.369 18.192 36.3764 18.3545C36.3796 18.4342 36.3837 18.517 36.4024 18.5942C36.4097 18.6251 36.417 18.656 36.4243 18.6869C36.4186 18.6869 36.4129 18.6877 36.4072 18.6877C36.1301 18.6877 35.9058 18.4667 35.9058 18.1944V16.483C35.9058 16.231 36.0976 16.0238 36.3447 15.9937" fill="#313B4C"/>
<path d="M36.4885 16.3398C36.5413 16.5438 36.4909 16.7576 36.4527 16.964C36.3674 17.4223 36.3398 17.8912 36.3723 18.3561" stroke="#6B9BB1" stroke-width="0.0406331" stroke-miterlimit="10"/>
<path d="M37.8887 14.1667C37.8887 14.1667 38.8639 19.2052 38.9183 19.354C38.9728 19.5027 39.0402 19.5165 39.1621 19.5165C39.284 19.5165 39.7537 19.4978 39.7537 19.4978" stroke="#21242A" stroke-width="0.0406331" stroke-miterlimit="10"/>
<path d="M38.7071 14.4341C38.7071 14.4341 38.404 14.5592 38.404 14.7218C38.404 14.8843 38.9867 17.8367 39.1086 18.3113C39.2305 18.7859 39.2573 19.0695 39.4336 19.0971C39.61 19.124 39.6904 19.0541 39.6904 19.0541C39.6904 19.0541 39.6368 18.23 39.4068 17.011C39.2256 16.0529 38.7079 14.4341 38.7079 14.4341H38.7071Z" fill="#D3F1FD"/>
<path d="M39.4946 19.0428C39.315 19.016 39.2873 18.7364 39.163 18.2708C39.0387 17.8051 38.4446 14.9031 38.4446 14.743C38.4446 14.6309 38.6128 14.5212 38.7225 14.4643C38.7087 14.422 38.6925 14.4033 38.6925 14.4033C38.6925 14.4033 38.3503 14.5594 38.3503 14.7219C38.3503 14.8844 38.933 17.8368 39.0549 18.3114C39.1768 18.786 39.2036 19.0696 39.38 19.0973C39.5563 19.1241 39.6912 19.0973 39.6912 19.0973C39.6912 19.0973 39.6912 19.0826 39.6912 19.0542C39.6376 19.0558 39.571 19.0542 39.4962 19.0428H39.4946Z" fill="#21242A"/>
<path d="M31.6856 17.5832C31.6856 17.9196 31.5101 18.1927 31.2931 18.1927C31.0761 18.1927 30.9006 17.9196 30.9006 17.5832V15.5995C30.9006 15.263 31.0761 14.99 31.2931 14.99C31.5101 14.99 31.6856 15.263 31.6856 15.5995V17.5832Z" stroke="#21242A" stroke-width="0.0406331" stroke-miterlimit="10"/>
<path d="M38.5633 14.1058C38.4023 13.7507 38.1634 12.9836 37.1508 12.7918C35.2582 12.4488 32.9047 12.3424 29.4915 12.4058V14.1058H38.5633Z" fill="#21242A"/>
<path d="M30.752 13.3005H36.4406" stroke="#D3F1FD" stroke-width="0.0406331" stroke-miterlimit="10"/>
</g>
</g>
<defs>
<clipPath id="clip0_4522_6640">
<rect width="40" height="40" fill="white"/>
</clipPath>
<clipPath id="clip1_4522_6640">
<rect width="40" height="16.6197" fill="white" transform="translate(0 11.5117)"/>
</clipPath>
</defs>
</svg>
