<svg width="32" height="32" viewBox="0 0 32 32" fill="none" xmlns="http://www.w3.org/2000/svg">
<path d="M25.3333 26.6663H6.66667C5.19391 26.6663 4 25.4724 4 23.9997V11.9997C4 10.5269 5.19391 9.33301 6.66667 9.33301H25.3333C26.8061 9.33301 28 10.5269 28 11.9997V23.9997C28 25.4724 26.8061 26.6663 25.3333 26.6663Z" stroke="#0A72B9" stroke-width="2"/>
<path d="M22.0003 18.6663C21.6321 18.6663 21.3337 18.3679 21.3337 17.9997C21.3337 17.6315 21.6321 17.333 22.0003 17.333C22.3685 17.333 22.667 17.6315 22.667 17.9997C22.667 18.3679 22.3685 18.6663 22.0003 18.6663Z" fill="#0A72B9" stroke="#0A72B9" stroke-width="2" stroke-linecap="round" stroke-linejoin="round"/>
<path d="M24 9.33333V7.47096C24 5.71888 22.3392 4.44289 20.6462 4.89434L5.97957 8.80545C4.81222 9.11674 4 10.1739 4 11.3821V12" stroke="#0A72B9" stroke-width="2"/>
</svg>
