<svg width="40" height="40" viewBox="0 0 40 40" fill="none" xmlns="http://www.w3.org/2000/svg">
<g clip-path="url(#clip0_4149_887)">
<g clip-path="url(#clip1_4149_887)">
<path d="M7.04224 16.6772H7.66656V18.8347H7.04224V16.6772Z" fill="#BACED8"/>
<path d="M6.60639 18.2908H8.10223V20.461H6.60639V18.2908Z" fill="#415F75"/>
<g style="mix-blend-mode:overlay" opacity="0.3">
<path d="M6.60655 18.2908H7.23743V20.461H6.60655V18.2908Z" fill="black"/>
</g>
<g style="mix-blend-mode:overlay" opacity="0.4">
<path d="M7.48976 18.2908H7.86176V20.461H7.48976V18.2908Z" fill="white"/>
</g>
<path d="M0.879822 17.9171C0.879822 17.9171 0.57742 18.7896 0.57406 18.7768C0.5707 18.764 0.467822 18.6302 0.467822 18.6302L0.63806 17.6147L0.776142 17.5413L0.857583 17.6003L0.879822 17.9173V17.9171Z" fill="#BACED8"/>
<path d="M0.847048 17.459V17.9385L1.47121 18.7767L1.43377 19.1375L1.13105 19.3353L0.750408 19.2055L0.588009 18.6537L0.154568 18.1414L9.05991e-06 18.2631L0.16481 18.5703L0.207048 19.4745L0.546087 19.8699L1.26929 20.0604L1.94897 19.6956L2.22113 18.9702L2.00273 18.3052L1.37729 17.7561L1.35169 17.5627L0.847048 17.459Z" fill="#415F75"/>
<path d="M0.570104 17.3015C0.570104 17.5418 0.764827 17.7365 1.00515 17.7365C1.24547 17.7365 1.44019 17.5418 1.44019 17.3015C1.44019 17.0612 1.24547 16.8665 1.00515 16.8665C0.764827 16.8665 0.570104 17.0612 0.570104 17.3015Z" fill="#415F75"/>
<path d="M1.00541 13.1511C1.08349 13.1511 1.14685 13.2145 1.14685 13.2926L1.14653 17.3015C1.14653 17.3796 1.08317 17.443 1.00509 17.443C0.927013 17.443 0.863651 17.3796 0.863651 17.3015L0.863972 13.2926C0.863972 13.2145 0.927333 13.1511 1.00541 13.1511Z" fill="#253B44"/>
<path d="M1.5792 12.0827L6.51758 14.6567L5.98341 15.6816L1.04503 13.1075L1.5792 12.0827Z" fill="#BACED8"/>
<path d="M3.27153 12.642L6.22156 14.1797L5.42581 15.7063L2.47578 14.1687L3.27153 12.642Z" fill="#415F75"/>
<g style="mix-blend-mode:overlay" opacity="0.4">
<path d="M3.27147 12.642L6.2215 14.1797L6.09067 14.4307L3.14064 12.893L3.27147 12.642Z" fill="white"/>
</g>
<path d="M1.45382 11.6984L2.04987 12.009L1.25412 13.5357L0.658069 13.225L1.45382 11.6984Z" fill="#415F75"/>
<path d="M4.72015 12.9713L17.4564 19.6099L16.3118 21.8058L3.57556 15.1672L4.72015 12.9713Z" fill="#253B44"/>
<g style="mix-blend-mode:overlay" opacity="0.3">
<path d="M5.0004 13.8622L17.1511 20.1956L16.617 21.2204L4.46623 14.887L5.0004 13.8622Z" fill="black"/>
</g>
<g style="mix-blend-mode:overlay" opacity="0.4">
<path d="M4.71991 12.9713L17.4562 19.6099L17.2818 19.9444L4.54552 13.3059L4.71991 12.9713Z" fill="white"/>
</g>
<path d="M20.2675 12.3554H22.6594V12.8722H21.1718L19.3373 19.4482C19.3373 19.4482 16.9602 19.7453 16.8826 19.7647C16.8051 19.784 20.2675 12.3552 20.2675 12.3552V12.3554Z" fill="#17262D"/>
<path d="M38.672 24.4439L37.7686 25.2491H32.1018L32 25.7709H19.3373V26.3343H12.9808L12.1325 25.7709H5.69423L5.33248 25.0336H4.97071V26.1645H4.40656V24.7279L8.25232 23.2736C8.25232 23.2736 13.2392 21.1611 13.3685 21.1611C13.4976 21.1611 38.0448 21.3989 38.0448 21.3989L38.672 24.4435V24.4439Z" fill="#17262D"/>
<path d="M10.3214 27.0923C9.18449 25.9554 9.18449 24.112 10.3215 22.975C11.4584 21.8381 13.3018 21.8381 14.4387 22.975C15.5757 24.112 15.5757 25.9554 14.4387 27.0923C13.3018 28.2293 11.4584 28.2293 10.3214 27.0923Z" fill="#253B44"/>
<g style="mix-blend-mode:overlay" opacity="0.3">
<path d="M12.3802 22.3818C13.8448 22.3818 15.0322 23.5692 15.0322 25.0338C15.0322 26.4985 13.8448 27.6858 12.3802 27.6858C10.9155 27.6858 9.72817 26.4985 9.72817 25.0338C9.72817 23.5692 10.9155 22.3818 12.3802 22.3818ZM12.3802 27.0239C13.4794 27.0239 14.3704 26.1329 14.3704 25.0337C14.3704 23.9345 13.4794 23.0434 12.3802 23.0434C11.281 23.0434 10.3899 23.9345 10.3899 25.0337C10.3899 26.1329 11.281 27.0239 12.3802 27.0239Z" fill="white"/>
</g>
<path d="M10.6684 25.437C10.4451 24.4911 11.0309 23.5433 11.9769 23.32C12.9228 23.0967 13.8707 23.6826 14.0939 24.6285C14.3172 25.5745 13.7313 26.5223 12.7854 26.7456C11.8394 26.9688 10.8916 26.383 10.6684 25.437Z" fill="#BACED8"/>
<g style="mix-blend-mode:overlay" opacity="0.6">
<path d="M12.3802 23.541C13.2046 23.541 13.8728 24.2093 13.8728 25.0338C13.8728 25.8583 13.2045 26.5265 12.3802 26.5265C11.5558 26.5265 10.8875 25.8581 10.8875 25.0338C10.8875 24.2095 11.5558 23.541 12.3802 23.541ZM12.3802 26.1647C13.0048 26.1647 13.511 25.6583 13.511 25.0338C13.511 24.4093 13.0046 23.9029 12.3802 23.9029C11.7557 23.9029 11.2493 24.4092 11.2493 25.0338C11.2493 25.6585 11.7555 26.1647 12.3802 26.1647Z" fill="black"/>
</g>
<g style="mix-blend-mode:overlay" opacity="0.6">
<path d="M12.0607 25.6981C11.6937 25.5217 11.5392 25.0812 11.7156 24.7142C11.892 24.3472 12.3325 24.1927 12.6995 24.3691C13.0665 24.5455 13.221 24.986 13.0446 25.353C12.8682 25.72 12.4277 25.8745 12.0607 25.6981Z" fill="white"/>
</g>
<path d="M11.8101 24.5661C11.9453 24.4015 12.1504 24.2964 12.3802 24.2964C12.7874 24.2964 13.1174 24.6265 13.1174 25.0337C13.1174 25.2559 13.019 25.4549 12.8635 25.5901C12.7995 25.0599 12.3635 24.6378 11.8102 24.5661H11.8101Z" fill="white"/>
<path d="M29.0184 14.7241L30.3878 18.1607L27.5541 17.885C27.5541 17.885 27.511 16.929 27.5541 16.8945C27.5971 16.8601 28.2689 14.5518 28.2689 14.5518L29.0182 14.7241H29.0184Z" fill="#253B44"/>
<g style="mix-blend-mode:overlay" opacity="0.3">
<path d="M28.5827 14.6465L29.9098 18.4226L30.3123 17.9711L29.0888 14.9006L28.5827 14.6465Z" fill="white"/>
</g>
<path d="M19.9575 19.0735L21.3528 14.3707L22.0763 13.6472H28.7816L29.6989 14.9005H28.2648L27.8384 17.4714L28.1226 17.7557L38.0707 18.5309L38.5215 19.5643L39.8277 19.9261V20.2879L39.156 21.2698V24.7151H37.8514L37.1018 22.4971L36.1586 21.7866H33.4842L32.5152 22.3291L30.4223 25.249H15.8749L14.9706 22.8719L14.2211 22.3162H10.6296L9.84146 22.8719L8.53666 25.249H4.27314V19.0735H19.9575Z" fill="#046FFC"/>
<path d="M27.535 15.0041L26.8824 17.5492L26.5336 17.8593H22.3347L22.204 17.6654L22.9677 14.7457L23.3037 14.5518H27.1925L27.535 15.0041Z" fill="#253B44"/>
<g style="mix-blend-mode:overlay" opacity="0.3">
<path d="M22.9677 14.7455L23.3035 14.5518H27.1923L27.5349 15.0039L26.8822 17.549L26.5334 17.8591H22.3345L22.204 17.6654L22.9677 14.7455ZM22.4294 17.6954H25.823V14.8876H25.9781V17.6954H26.4862L26.7877 17.4543L27.3992 15.0169L27.1321 14.6465H23.3854L23.1357 14.8876L22.3864 17.5663L22.4294 17.6954Z" fill="black"/>
</g>
<g style="mix-blend-mode:overlay" opacity="0.3">
<path d="M19.992 19.0735V20.6152H39.2075L38.9061 21.3128V24.7149H39.1559V21.2696L39.8277 20.2877V19.9259L38.5213 19.5642L38.0706 18.5306L28.1226 17.7554L27.9743 17.6071L27.1277 18.0395L20.3167 17.8623L20.26 18.053L37.373 18.9179L37.6658 19.5554L20.6291 18.7285L19.9917 19.073L19.992 19.0735ZM27.9418 14.3578C27.9418 14.3578 27.4896 14.177 27.3992 14.1898C27.3283 14.1999 23.3575 14.1147 21.6461 14.0775L22.0763 13.6472H28.7816L29.6989 14.9003H28.2648L27.9418 14.3578ZM26.3743 21.1611C29.176 21.1611 31.4474 21.4362 31.4474 21.7752C31.4474 22.1143 29.176 22.3893 26.3743 22.3893C23.5725 22.3893 21.3011 22.1143 21.3011 21.7752C21.3011 21.4362 23.5725 21.1611 26.3743 21.1611Z" fill="white"/>
</g>
<g style="mix-blend-mode:overlay" opacity="0.3">
<path d="M19.7853 19.332H19.992V25.2492H16.3056L16.633 21.1613H6.00448L5.16032 24.6376L5.86656 24.896H8.7304L8.53648 25.2492H4.27296V19.332H19.785H19.7853ZM17.4253 20.8308L17.3046 20.1639L15.9782 19.5904H7.52032L6.33168 20.1639L6.07329 20.8308H17.4253Z" fill="black"/>
</g>
<g style="mix-blend-mode:overlay" opacity="0.3">
<path d="M4.27311 19.0735H4.76831V25.249H4.27311V19.0735Z" fill="black"/>
</g>
<g style="mix-blend-mode:overlay" opacity="0.3">
<path d="M6.33169 20.1638L7.52033 19.5903H15.9783L17.3047 20.1638L17.4253 20.8307H16.5239C16.2755 20.543 15.8103 20.0425 15.8103 20.0425H7.36082L6.22833 20.4302L6.33153 20.1638H6.33169Z" fill="white"/>
</g>
<g style="mix-blend-mode:overlay" opacity="0.3">
<path d="M19.992 19.332V24.81H17.0808L17.4253 20.8308L17.3046 20.1639L15.9782 19.5904H4.27312V19.332H19.7853H19.992Z" fill="black"/>
</g>
<g style="mix-blend-mode:overlay" opacity="0.3">
<path d="M19.3374 19.332H19.992V24.81H19.3374V19.332Z" fill="black"/>
</g>
<path d="M5.44446 24.4051H3.61854L3.36878 24.1552V23.5782L3.73054 23.0701H4.76414L5.44446 24.0518V24.4051Z" fill="#BACED8"/>
<path d="M4.76831 21.7006V21.8857V22.0708L4.04495 22.3895V21.8857V21.3818L4.76831 21.7006Z" fill="#BACED8"/>
<g style="mix-blend-mode:overlay" opacity="0.6">
<path d="M4.76831 21.9675V22.0709L4.04495 22.3896V21.9675H4.76831Z" fill="black"/>
</g>
<path d="M32.4893 27.0923C31.3523 25.9554 31.3523 24.112 32.4893 22.975C33.6263 21.8381 35.4696 21.8381 36.6066 22.975C37.7435 24.112 37.7435 25.9554 36.6066 27.0923C35.4696 28.2293 33.6263 28.2293 32.4893 27.0923Z" fill="#253B44"/>
<g style="mix-blend-mode:overlay" opacity="0.3">
<path d="M34.548 22.3818C36.0127 22.3818 37.2 23.5692 37.2 25.0338C37.2 26.4985 36.0127 27.6858 34.548 27.6858C33.0834 27.6858 31.896 26.4985 31.896 25.0338C31.896 23.5692 33.0834 22.3818 34.548 22.3818ZM34.548 27.0239C35.6472 27.0239 36.5383 26.1329 36.5383 25.0337C36.5383 23.9345 35.6472 23.0434 34.548 23.0434C33.4488 23.0434 32.5578 23.9345 32.5578 25.0337C32.5578 26.1329 33.4488 27.0239 34.548 27.0239Z" fill="white"/>
</g>
<path d="M33.3036 26.2781C32.6163 25.5908 32.6163 24.4766 33.3036 23.7893C33.9908 23.102 35.1051 23.102 35.7923 23.7893C36.4796 24.4766 36.4796 25.5908 35.7923 26.2781C35.1051 26.9653 33.9908 26.9653 33.3036 26.2781Z" fill="#BACED8"/>
<g style="mix-blend-mode:overlay" opacity="0.6">
<path d="M34.548 23.541C35.3723 23.541 36.0406 24.2093 36.0406 25.0338C36.0406 25.8583 35.3723 26.5265 34.548 26.5265C33.7237 26.5265 33.0554 25.8581 33.0554 25.0338C33.0554 24.2095 33.7237 23.541 34.548 23.541ZM34.548 26.1647C35.1726 26.1647 35.6789 25.6583 35.6789 25.0338C35.6789 24.4093 35.1726 23.9029 34.548 23.9029C33.9234 23.9029 33.4171 24.4092 33.4171 25.0338C33.4171 25.6585 33.9235 26.1647 34.548 26.1647Z" fill="black"/>
</g>
<g style="mix-blend-mode:overlay" opacity="0.6">
<path d="M34.0266 25.555C33.7387 25.2671 33.7387 24.8003 34.0266 24.5124C34.3146 24.2244 34.7814 24.2244 35.0693 24.5124C35.3572 24.8003 35.3572 25.2671 35.0693 25.555C34.7814 25.843 34.3146 25.843 34.0266 25.555Z" fill="white"/>
</g>
<path d="M33.9779 24.5661C34.1131 24.4015 34.3182 24.2964 34.548 24.2964C34.9552 24.2964 35.2853 24.6265 35.2853 25.0337C35.2853 25.2559 35.1869 25.4549 35.0312 25.5901C34.9672 25.0599 34.5312 24.6378 33.9779 24.5661Z" fill="white"/>
<path d="M40 24.5601L39.776 25.0423H38.6306L38.0448 24.7151V24.0777L38.3635 23.8452H39.6813L40 24.25V24.5601Z" fill="#BACED8"/>
<path d="M39.5693 22.579V22.9838L39.4174 23.1216H37.8552C37.8552 23.1216 37.7605 22.8804 37.7691 22.8502C37.7778 22.8201 38.8285 22.3894 38.8285 22.3894H39.4227L39.5691 22.5788L39.5693 22.579Z" fill="#BACED8"/>
<g style="mix-blend-mode:overlay" opacity="0.6">
<path d="M39.5693 22.8892V22.9839L39.4174 23.1216H37.8552C37.8552 23.1216 37.7941 22.9658 37.7746 22.8892H39.5693Z" fill="black"/>
</g>
<g style="mix-blend-mode:overlay" opacity="0.3">
<path d="M30.7958 24.7279H19.992V24.5471H30.9254L30.7958 24.7279Z" fill="black"/>
</g>
<g style="mix-blend-mode:overlay" opacity="0.3">
<path d="M21.5555 25.2492V18.4101L22.6699 14.496L22.9779 14.2805H27.4459L27.9166 14.9469L27.3949 17.0434V18.0324L29.0915 18.7688V25.2492H28.9107V18.8876L27.2139 18.1511V17.0213L27.7211 14.9836L27.3523 14.4613H23.035L22.8262 14.6074L21.7365 18.4354V25.2492H21.5555Z" fill="black"/>
</g>
<g style="mix-blend-mode:overlay" opacity="0.3">
<path d="M22.3505 18.857C22.3505 19.058 22.6873 19.2208 23.1027 19.2208C23.5181 19.2208 23.8549 19.058 23.8549 18.857C23.8549 18.656 23.5181 18.4932 23.1027 18.4932C22.6873 18.4932 22.3505 18.656 22.3505 18.857Z" fill="black"/>
</g>
<path d="M22.1968 18.6311L24.1154 18.7668V18.8572V18.9477L22.1968 19.0833L22.0806 18.8572L22.1968 18.6311Z" fill="#BACED8"/>
<g style="mix-blend-mode:overlay" opacity="0.3">
<path d="M22.3067 18.857C22.3067 18.9194 22.3573 18.9701 22.4198 18.9701C22.4824 18.9701 22.533 18.9196 22.533 18.857C22.533 18.7945 22.4824 18.7439 22.4198 18.7439C22.3573 18.7439 22.3067 18.7945 22.3067 18.857Z" fill="black"/>
</g>
<path d="M28.1234 19.0316C27.9552 19.0316 27.8189 18.8952 27.8189 18.7271C27.8189 18.5589 27.9552 18.4226 28.1234 18.4226C28.2915 18.4226 28.4279 18.5589 28.4279 18.7271C28.4279 18.8952 28.2915 19.0316 28.1234 19.0316Z" fill="#BACED8"/>
<g style="mix-blend-mode:overlay" opacity="0.6">
<path d="M38.0448 24.7151V24.0777L38.0598 24.0667L38.3808 24.5772L40 24.5374V24.5601L39.776 25.0423H38.6306L38.0448 24.7151Z" fill="black"/>
</g>
<g style="mix-blend-mode:overlay" opacity="0.6">
<path d="M3.36878 24.1552V23.5782L3.73054 23.0701H3.91182L3.76494 23.6385V23.9485H5.37294L5.44446 24.0518V24.4051H3.61854L3.36878 24.1552Z" fill="black"/>
</g>
<g style="mix-blend-mode:overlay" opacity="0.3">
<path d="M21.3528 14.3707L22.0763 13.6472H22.3329L21.7489 14.4224L20.6809 18.6309V23.5408H30.9254L30.3878 24.2963H20.836V24.9432H30.6414L30.4222 25.249H19.992V18.9573L21.3528 14.3707Z" fill="black"/>
</g>
<path d="M28.8315 17.2981L28.2605 18.7891L28.0624 18.857L27.9675 18.7271L28.6309 17.2981H28.8315Z" fill="#415F75"/>
<path d="M28.4621 16.4832V17.9678H28.6461L28.9283 17.3544L28.6339 16.4832H28.4621Z" fill="#BACED8"/>
</g>
</g>
<defs>
<clipPath id="clip0_4149_887">
<rect width="40" height="40" fill="white"/>
</clipPath>
<clipPath id="clip1_4149_887">
<rect width="40" height="16.2459" fill="white" transform="matrix(-1 0 0 1 40 11.6987)"/>
</clipPath>
</defs>
</svg>
